<svg width="103" height="123" viewBox="0 0 103 123" fill="none" xmlns="http://www.w3.org/2000/svg">
<g filter="url(#filter0_d_94_145)">
<path d="M64.2877 40.1439C64.2877 26.8012 53.4722 16 40.1439 16C26.8156 16 16 26.8156 16 40.1439C16 40.1581 16 40.1728 16 40.1871V101.957C16 104.195 17.805 106 20.0432 106C20.8085 106 21.5161 105.783 22.137 105.422C22.1948 105.393 22.2526 105.35 22.3103 105.307L37.8768 95.3864C38.5266 94.9532 39.3063 94.6933 40.1439 94.6933C40.9091 94.6933 41.6311 94.9099 42.2377 95.2709L57.9772 105.292C58.0351 105.336 58.0931 105.379 58.1506 105.408C58.7572 105.783 59.4792 105.986 60.2444 105.986C62.4827 105.986 64.2877 104.181 64.2877 101.942V40.1728C64.2877 40.1728 64.2877 40.1581 64.2877 40.1439Z" fill="white"/>
<path d="M60.0231 40.2022C60.0231 51.1332 51.157 59.9997 40.2258 59.9997C29.2947 59.9997 20.4285 51.1332 20.4285 40.2022C20.4285 29.271 29.2947 20.4048 40.2258 20.4048C51.157 20.4048 60.0231 29.271 60.0231 40.2022Z" fill="#FFA53D"/>
<path d="M40.2837 20.4766C29.3575 20.4766 20.5007 29.3334 20.5007 40.2596C20.5007 45.7207 22.7135 50.6654 26.2922 54.2451C29.8719 57.8267 38.3054 63.01 38.7999 68.45C38.8741 69.2658 39.4646 69.934 40.2837 69.934C41.1026 69.934 41.6931 69.2658 41.7676 68.45C42.262 63.01 50.6953 57.8267 54.275 54.2451C57.8538 50.6654 60.0668 45.7207 60.0668 40.2596C60.0668 29.3334 51.2099 20.4766 40.2837 20.4766Z" fill="#FFA53D"/>
<path d="M43.1433 31.4946H41.1502C37.7136 31.4946 35.9953 33.2128 35.9953 35.7831C35.9953 38.6427 37.136 40.072 39.7208 41.7906L41.7278 43.2199L35.9953 52.1007H31.4177L36.8617 44.0863C33.7137 41.7906 31.9953 39.7974 31.9953 36.0719C31.9953 31.4946 35.1433 28.3467 41.1502 28.3467H47.1576V52.1007H43.1576V31.4946H43.1433Z" fill="white"/>
<path d="M24.8638 77.4472L26.8912 80.6531H25.4356L23.9887 78.3656L22.5158 80.6531H21.2595L23.3302 77.4734L21.3894 74.4497H22.8624L24.2053 76.5808L25.5829 74.4497H26.8305L24.8638 77.4472ZM29.2062 79.6565C29.3564 79.6565 29.498 79.6307 29.6308 79.5788C29.7694 79.5208 29.8907 79.4371 29.9947 79.3272C30.0987 79.2178 30.1824 79.0876 30.246 78.9377C30.3095 78.7818 30.3412 78.6025 30.3412 78.4006C30.3412 78.2042 30.3095 78.0281 30.246 77.8717C30.1824 77.7158 30.0987 77.5861 29.9947 77.4822C29.8907 77.3782 29.7694 77.3001 29.6308 77.2481C29.498 77.1902 29.3564 77.1616 29.2062 77.1616C29.0561 77.1616 28.9117 77.1902 28.7731 77.2481C28.6402 77.3001 28.5218 77.3782 28.4178 77.4822C28.3139 77.5861 28.2301 77.7158 28.1666 77.8717C28.103 78.0281 28.0713 78.2042 28.0713 78.4006C28.0713 78.6025 28.103 78.7818 28.1666 78.9377C28.2301 79.0876 28.3139 79.2178 28.4178 79.3272C28.5218 79.4371 28.6402 79.5208 28.7731 79.5788C28.9117 79.6307 29.0561 79.6565 29.2062 79.6565ZM29.2062 80.7395C28.8828 80.7395 28.5767 80.6876 28.2879 80.5836C28.0049 80.4742 27.7536 80.3178 27.5341 80.1159C27.3204 79.9136 27.15 79.668 27.0229 79.3792C26.9016 79.0908 26.841 78.7643 26.841 78.4006C26.841 78.0423 26.9016 77.7218 27.0229 77.4385C27.15 77.1497 27.3204 76.9046 27.5341 76.7022C27.7536 76.4999 28.0049 76.3472 28.2879 76.2432C28.5767 76.1333 28.8828 76.0786 29.2062 76.0786C29.5297 76.0786 29.833 76.1333 30.116 76.2432C30.4048 76.3472 30.6561 76.4999 30.8698 76.7022C31.0892 76.9046 31.2625 77.1497 31.3896 77.4385C31.5167 77.7218 31.5802 78.0423 31.5802 78.4006C31.5802 78.7643 31.5167 79.0908 31.3896 79.3792C31.2683 79.668 31.0979 79.9136 30.8784 80.1159C30.6647 80.3178 30.4134 80.4742 30.1247 80.5836C29.8359 80.6876 29.5297 80.7395 29.2062 80.7395ZM33.3548 76.1651L33.3808 76.7629C33.5541 76.5436 33.7678 76.3757 34.0219 76.2603C34.2818 76.1389 34.5677 76.0786 34.8797 76.0786C35.1512 76.0786 35.4111 76.1274 35.6594 76.2258C35.9078 76.3182 36.1273 76.4599 36.3179 76.6502C36.5085 76.8406 36.6587 77.0775 36.7684 77.3608C36.884 77.6436 36.9417 77.9701 36.9417 78.3399C36.9417 78.7326 36.8782 79.0789 36.7511 79.3792C36.6298 79.674 36.4681 79.9223 36.2659 80.1247C36.0638 80.3265 35.8327 80.4797 35.5728 80.5836C35.3186 80.6876 35.0616 80.7395 34.8017 80.7395C34.5129 80.7395 34.253 80.6935 34.0219 80.6011C33.7909 80.5087 33.5888 80.3785 33.4155 80.2111V82.1868H32.2111V76.1651H33.3548ZM35.7201 78.4088C35.7201 78.2069 35.6883 78.0248 35.6248 77.8634C35.5612 77.7015 35.4775 77.5659 35.3735 77.456C35.2696 77.3461 35.1483 77.2623 35.0097 77.2049C34.871 77.1469 34.7237 77.1179 34.5677 77.1179C34.4176 77.1179 34.2703 77.1469 34.1259 77.2049C33.9873 77.2623 33.8631 77.3493 33.7533 77.4647C33.6436 77.5746 33.557 77.7103 33.4934 77.8717C33.4299 78.0281 33.3981 78.2097 33.3981 78.4176C33.3981 78.6254 33.4299 78.8103 33.4934 78.9722C33.557 79.1341 33.6436 79.2697 33.7533 79.3792C33.8631 79.4836 33.9873 79.5641 34.1259 79.622C34.2645 79.68 34.4118 79.7085 34.5677 79.7085C34.7237 79.7085 34.871 79.68 35.0097 79.622C35.1483 79.5641 35.2696 79.4804 35.3735 79.3709C35.4775 79.255 35.5612 79.1194 35.6248 78.9635C35.6883 78.802 35.7201 78.6172 35.7201 78.4088ZM39.6895 79.6565C39.8396 79.6565 39.9811 79.6307 40.114 79.5788C40.2526 79.5208 40.3739 79.4371 40.4779 79.3272C40.5819 79.2178 40.6656 79.0876 40.7291 78.9377C40.7927 78.7818 40.8245 78.6025 40.8245 78.4006C40.8245 78.2042 40.7927 78.0281 40.7291 77.8717C40.6656 77.7158 40.5819 77.5861 40.4779 77.4822C40.3739 77.3782 40.2526 77.3001 40.114 77.2481C39.9811 77.1902 39.8396 77.1616 39.6895 77.1616C39.5393 77.1616 39.3949 77.1902 39.2563 77.2481C39.1234 77.3001 39.005 77.3782 38.901 77.4822C38.7971 77.5861 38.7133 77.7158 38.6498 77.8717C38.5862 78.0281 38.5545 78.2042 38.5545 78.4006C38.5545 78.6025 38.5862 78.7818 38.6498 78.9377C38.7133 79.0876 38.7971 79.2178 38.901 79.3272C39.005 79.4371 39.1234 79.5208 39.2563 79.5788C39.3949 79.6307 39.5393 79.6565 39.6895 79.6565ZM39.6895 80.7395C39.366 80.7395 39.0598 80.6876 38.7711 80.5836C38.488 80.4742 38.2368 80.3178 38.0173 80.1159C37.8036 79.9136 37.6332 79.668 37.5061 79.3792C37.3848 79.0908 37.3241 78.7643 37.3241 78.4006C37.3241 78.0423 37.3848 77.7218 37.5061 77.4385C37.6332 77.1497 37.8036 76.9046 38.0173 76.7022C38.2368 76.4999 38.488 76.3472 38.7711 76.2432C39.0598 76.1333 39.366 76.0786 39.6895 76.0786C40.0129 76.0786 40.3161 76.1333 40.5992 76.2432C40.8878 76.3472 41.1394 76.4999 41.3528 76.7022C41.5726 76.9046 41.7455 77.1497 41.8729 77.4385C41.9998 77.7218 42.0633 78.0423 42.0633 78.4006C42.0633 78.7643 41.9998 79.0908 41.8729 79.3792C41.7515 79.668 41.5813 79.9136 41.3615 80.1159C41.1481 80.3178 40.8966 80.4742 40.6079 80.5836C40.319 80.6876 40.0129 80.7395 39.6895 80.7395ZM42.6942 76.1651H43.8987V79.6395H45.3542V76.1651H46.5586V79.6395H48.0054V76.1651H49.2099V80.6531H42.6942V76.1651ZM52.2727 80.7395C51.8914 80.7395 51.5507 80.6848 51.2504 80.5749C50.9501 80.4595 50.6957 80.3008 50.4879 80.0985C50.28 79.8966 50.1181 79.6537 50.0027 79.3709C49.8928 79.0821 49.8381 78.7671 49.8381 78.4263C49.8381 78.0625 49.8988 77.736 50.0197 77.4472C50.1471 77.1584 50.3145 76.9128 50.5224 76.711C50.7362 76.5086 50.9818 76.3527 51.2591 76.2432C51.5419 76.1333 51.8395 76.0786 52.1513 76.0786C52.4691 76.0786 52.7606 76.1389 53.0264 76.2603C53.2978 76.3757 53.5231 76.5463 53.702 76.7717C53.8869 76.997 54.0198 77.2771 54.1007 77.6119C54.1872 77.9411 54.2074 78.3196 54.1614 78.7469H51.1027C51.1782 79.0416 51.3313 79.284 51.5622 79.4748C51.799 79.6597 52.1251 79.7522 52.5413 79.7522C52.7951 79.7522 53.0522 79.7172 53.3125 79.6482C53.5723 79.5728 53.7917 79.4689 53.9706 79.336V80.2893C53.7857 80.4222 53.5433 80.5317 53.243 80.6186C52.9427 80.6991 52.619 80.7395 52.2727 80.7395ZM52.1081 77.0053C51.8482 77.0053 51.6284 77.0894 51.4495 77.2568C51.2706 77.4183 51.1492 77.6381 51.0857 77.9154H53.009C52.9915 77.6551 52.905 77.4385 52.7491 77.2656C52.5932 77.0922 52.3794 77.0053 52.1081 77.0053ZM56.9938 80.7395C56.6126 80.7395 56.2718 80.6848 55.9715 80.5749C55.6712 80.4595 55.4169 80.3008 55.209 80.0985C55.0012 79.8966 54.8393 79.6537 54.7239 79.3709C54.6139 79.0821 54.5592 78.7671 54.5592 78.4263C54.5592 78.0625 54.6199 77.736 54.7413 77.4472C54.8683 77.1584 55.0357 76.9128 55.2435 76.711C55.4574 76.5086 55.703 76.3527 55.9803 76.2432C56.2631 76.1333 56.5606 76.0786 56.8724 76.0786C57.1902 76.0786 57.4818 76.1389 57.7476 76.2603C58.0189 76.3757 58.2443 76.5463 58.4232 76.7717C58.608 76.997 58.7409 77.2771 58.8219 77.6119C58.9088 77.9411 58.9286 78.3196 58.8826 78.7469H55.8244C55.8993 79.0416 56.0525 79.284 56.2833 79.4748C56.5202 79.6597 56.8467 79.7522 57.2624 79.7522C57.5167 79.7522 57.7738 79.7172 58.0336 79.6482C58.2935 79.5728 58.5128 79.4689 58.6922 79.336V80.2893C58.5073 80.4222 58.2645 80.5317 57.9642 80.6186C57.6639 80.6991 57.3406 80.7395 56.9938 80.7395ZM56.8292 77.0053C56.5694 77.0053 56.35 77.0894 56.1707 77.2568C55.9918 77.4183 55.8704 77.6381 55.8069 77.9154H57.7301C57.7131 77.6551 57.6262 77.4385 57.4703 77.2656C57.3144 77.0922 57.1005 77.0053 56.8292 77.0053ZM29.9237 83.5232L31.1367 86.088L32.4017 83.5232H33.8659L33.8745 88.0112H32.6702V85.0739L31.4399 87.6644H30.6255L29.4645 85.0482V88.0112H28.4249V83.5232H29.9237ZM36.9455 88.0977C36.5642 88.0977 36.2235 88.0429 35.9231 87.933C35.6228 87.8176 35.3686 87.6589 35.1607 87.4566C34.9528 87.2547 34.791 87.0119 34.6755 86.729C34.5657 86.4402 34.5109 86.1252 34.5109 85.7844C34.5109 85.4207 34.5715 85.0942 34.6928 84.8054C34.8199 84.5165 34.9874 84.271 35.1954 84.0691C35.4091 83.8667 35.6545 83.7108 35.9318 83.6014C36.2148 83.4915 36.5123 83.4367 36.8242 83.4367C37.1419 83.4367 37.4336 83.497 37.6992 83.6184C37.9707 83.7338 38.196 83.9044 38.375 84.1298C38.5599 84.3551 38.6927 84.6352 38.7736 84.97C38.8603 85.2993 38.8804 85.6777 38.8342 86.105H35.7758C35.8509 86.3998 36.004 86.6421 36.235 86.833C36.4719 87.0178 36.7982 87.1103 37.2141 87.1103C37.4682 87.1103 37.7253 87.0753 37.9852 87.0064C38.2451 86.9309 38.4646 86.827 38.6436 86.6941V87.6474C38.4588 87.7803 38.2162 87.8898 37.9158 87.9767C37.6155 88.0572 37.2921 88.0977 36.9455 88.0977ZM36.7808 84.3634C36.5209 84.3634 36.3015 84.4476 36.1224 84.615C35.9434 84.7764 35.822 84.9962 35.7585 85.2735H37.6819C37.6646 85.0132 37.578 84.7966 37.422 84.6237C37.2661 84.4503 37.0523 84.3634 36.7808 84.3634ZM41.6319 88.0977C41.2741 88.0977 40.9476 88.0429 40.653 87.933C40.3585 87.8236 40.1043 87.6704 39.8906 87.4741C39.6827 87.2717 39.5209 87.0293 39.4054 86.7461C39.2899 86.4573 39.2321 86.134 39.2321 85.7757C39.2321 85.4234 39.2899 85.1029 39.4054 84.8141C39.5267 84.5253 39.6942 84.2797 39.9079 84.0778C40.1274 83.8755 40.3873 83.7196 40.6877 83.6097C40.9881 83.4942 41.3229 83.4367 41.6926 83.4367C41.9525 83.4367 42.1865 83.4625 42.3944 83.5145C42.6082 83.5664 42.7904 83.6331 42.9403 83.7136V84.8054C42.7904 84.6899 42.617 84.6035 42.4206 84.5455C42.2242 84.4821 42.0247 84.4503 41.8228 84.4503C41.4185 84.4503 41.0893 84.5685 40.8349 84.8054C40.5866 85.0422 40.4624 85.354 40.4624 85.7412C40.4624 85.9436 40.4942 86.128 40.5577 86.2958C40.627 86.4573 40.7223 86.5961 40.8437 86.7116C40.9651 86.827 41.1063 86.9194 41.2682 86.9889C41.4355 87.0523 41.6177 87.0841 41.814 87.0841C42.0104 87.0841 42.2068 87.0551 42.4031 86.9976C42.5995 86.9397 42.7816 86.85 42.949 86.729V87.7601C42.8106 87.864 42.6257 87.9477 42.3944 88.0112C42.1635 88.0691 41.9092 88.0977 41.6319 88.0977ZM47.3423 83.5232V84.5368H45.982V88.0112H44.7775V84.5368H43.4434V83.5232H47.3423ZM49.8555 87.0146C50.0055 87.0146 50.1471 86.9889 50.28 86.9369C50.4184 86.879 50.5399 86.7953 50.6438 86.6854C50.7477 86.5759 50.8314 86.4458 50.8949 86.2958C50.9583 86.1399 50.9905 85.9606 50.9905 85.7587C50.9905 85.5623 50.9583 85.3862 50.8949 85.2298C50.8314 85.0739 50.7477 84.9442 50.6438 84.8403C50.5399 84.7364 50.4184 84.6582 50.28 84.6062C50.1471 84.5483 50.0055 84.5198 49.8555 84.5198C49.7052 84.5198 49.5608 84.5483 49.4223 84.6062C49.2894 84.6582 49.1708 84.7364 49.0668 84.8403C48.9629 84.9442 48.8792 85.0739 48.8158 85.2298C48.7523 85.3862 48.7206 85.5623 48.7206 85.7587C48.7206 85.9606 48.7523 86.1399 48.8158 86.2958C48.8792 86.4458 48.9629 86.5759 49.0668 86.6854C49.1708 86.7953 49.2894 86.879 49.4223 86.9369C49.5608 86.9889 49.7052 87.0146 49.8555 87.0146ZM49.8555 88.0977C49.5318 88.0977 49.226 88.0457 48.9372 87.9418C48.6539 87.8323 48.4028 87.6759 48.183 87.4741C47.9696 87.2717 47.799 87.0261 47.672 86.7373C47.5506 86.449 47.4899 86.1225 47.4899 85.7587C47.4899 85.4004 47.5506 85.0799 47.672 84.7966C47.799 84.5078 47.9696 84.2627 48.183 84.0603C48.4028 83.858 48.6539 83.7053 48.9372 83.6014C49.226 83.4915 49.5318 83.4367 49.8555 83.4367C50.1788 83.4367 50.4819 83.4915 50.7652 83.6014C51.054 83.7053 51.3051 83.858 51.5189 84.0603C51.7383 84.2627 51.9117 84.5078 52.0386 84.7966C52.1655 85.0799 52.2295 85.4004 52.2295 85.7587C52.2295 86.1225 52.1655 86.449 52.0386 86.7373C51.9172 87.0261 51.747 87.2717 51.5277 87.4741C51.3138 87.6759 51.0627 87.8323 50.7739 87.9418C50.4851 88.0457 50.1788 88.0977 49.8555 88.0977Z" fill="black"/>
<path d="M78.7923 16L81.583 20.9512L87.1542 22.0753L83.3077 26.2594L83.9602 31.9054L78.7923 29.5401L73.6243 31.9054L74.2768 26.2594L70.4303 22.0753L76.0016 20.9512L78.7923 16Z" fill="#FFA53D"/>
<path d="M78.7923 34.5845L81.583 39.5357L87.1542 40.6598L83.3077 44.8439L83.9602 50.4898L78.7923 48.1246L73.6243 50.4898L74.2768 44.8439L70.4303 40.6598L76.0016 39.5357L78.7923 34.5845Z" fill="#FFA53D"/>
<path d="M78.4541 53.1689L81.1375 58.1201L86.4944 59.2443L82.7959 63.4284L83.4233 69.0743L78.4541 66.709L73.4849 69.0743L74.1123 63.4284L70.4138 59.2443L75.7707 58.1201L78.4541 53.1689Z" fill="#FFA53D"/>
<path d="M78.7925 71.7534L81.5832 76.7046L87.1545 77.8287L83.308 82.0128L83.9605 87.6588L78.7925 85.2935L73.6245 87.6588L74.2771 82.0128L70.4306 77.8287L76.0018 76.7046L78.7925 71.7534Z" fill="#FFA53D"/>
<path d="M78.7923 90.3379L81.583 95.2891L87.1542 96.4132L83.3077 100.597L83.9602 106.243L78.7923 103.878L73.6243 106.243L74.2768 100.597L70.4303 96.4132L76.0016 95.2891L78.7923 90.3379Z" fill="#FFA53D"/>
</g>
<defs>
<filter id="filter0_d_94_145" x="0.15004" y="0.15004" width="102.854" height="121.943" filterUnits="userSpaceOnUse" color-interpolation-filters="sRGB">
<feFlood flood-opacity="0" result="BackgroundImageFix"/>
<feColorMatrix in="SourceAlpha" type="matrix" values="0 0 0 0 0 0 0 0 0 0 0 0 0 0 0 0 0 0 127 0" result="hardAlpha"/>
<feOffset/>
<feGaussianBlur stdDeviation="7.92498"/>
<feColorMatrix type="matrix" values="0 0 0 0 0 0 0 0 0 0 0 0 0 0 0 0 0 0 0.12 0"/>
<feBlend mode="normal" in2="BackgroundImageFix" result="effect1_dropShadow_94_145"/>
<feBlend mode="normal" in="SourceGraphic" in2="effect1_dropShadow_94_145" result="shape"/>
</filter>
</defs>
</svg>
