<svg width="142" height="61" viewBox="0 0 142 61" fill="none" xmlns="http://www.w3.org/2000/svg">
<path d="M37.8583 12.2908H52.1504V14.9514H46.523V29.9499H43.4385V14.9514H37.8347L37.8583 12.2908ZM51.5382 17.1647H54.1753V19.637H54.2224C54.3166 19.2838 54.4814 18.9541 54.7168 18.6245C54.9523 18.2949 55.2348 17.9888 55.588 17.7298C55.9177 17.4472 56.2944 17.2353 56.7182 17.0705C57.1185 16.9057 57.5423 16.8115 57.9661 16.8115C58.2958 16.8115 58.5312 16.835 58.6489 16.835C58.7667 16.8586 58.9079 16.8821 59.0257 16.8821V19.5899C58.8373 19.5428 58.6254 19.5192 58.4135 19.4957C58.2016 19.4721 58.0132 19.4486 57.8013 19.4486C57.3304 19.4486 56.883 19.5428 56.4592 19.7311C56.0354 19.9195 55.6822 20.2021 55.3526 20.5552C55.0465 20.932 54.7875 21.3793 54.5991 21.9209C54.4107 22.4624 54.3166 23.0982 54.3166 23.8045V29.8793H51.4911L51.5382 17.1647ZM71.9757 29.9499H69.1973V28.1604H69.1502C68.797 28.8197 68.279 29.3142 67.5962 29.7144C66.9134 30.1147 66.207 30.3031 65.5007 30.3031C63.8289 30.3031 62.6046 29.9028 61.8511 29.0552C61.0977 28.2311 60.7209 26.9596 60.7209 25.2879V17.1647H63.5464V25.0053C63.5464 26.1355 63.7583 26.9361 64.2057 27.3834C64.6295 27.8543 65.2417 28.0898 66.0187 28.0898C66.6073 28.0898 67.1018 27.9956 67.502 27.8073C67.9023 27.6189 68.232 27.3834 68.4674 27.0773C68.7264 26.7712 68.8912 26.3945 69.009 25.9707C69.1267 25.5469 69.1738 25.076 69.1738 24.5815V17.1647H71.9992V29.9499H71.9757ZM76.779 25.853C76.8731 26.6771 77.1792 27.2422 77.7208 27.5953C78.2623 27.925 78.9216 28.0898 79.6751 28.0898C79.9341 28.0898 80.2402 28.0662 80.5698 28.0192C80.8994 27.9721 81.2291 27.9014 81.5116 27.7837C81.8177 27.666 82.0532 27.5012 82.2415 27.2657C82.4299 27.0302 82.5241 26.7477 82.5005 26.3945C82.477 26.0413 82.3592 25.7352 82.1002 25.4998C81.8412 25.2643 81.5352 25.0995 81.1584 24.9347C80.7817 24.7934 80.3343 24.6757 79.8399 24.5815C79.3454 24.4873 78.851 24.3696 78.333 24.2519C77.815 24.1342 77.297 23.9929 76.8025 23.8281C76.3081 23.6632 75.8842 23.4513 75.484 23.1452C75.1072 22.8627 74.7776 22.5095 74.5657 22.0622C74.3302 21.6148 74.2125 21.0968 74.2125 20.4375C74.2125 19.7311 74.3773 19.1661 74.7305 18.6951C75.0601 18.2242 75.5075 17.8475 76.0255 17.565C76.5435 17.2824 77.1321 17.0705 77.7679 16.9528C78.4036 16.835 79.0158 16.788 79.5809 16.788C80.2402 16.788 80.8759 16.8586 81.4645 16.9999C82.0532 17.1411 82.6182 17.3531 83.0892 17.6827C83.5836 17.9888 83.9839 18.4126 84.29 18.907C84.6196 19.4015 84.808 20.0137 84.9022 20.7201H81.959C81.8177 20.0372 81.5116 19.5899 81.0407 19.3544C80.5462 19.119 80.0047 19.0012 79.369 19.0012C79.1806 19.0012 78.9216 19.0248 78.6626 19.0483C78.3801 19.0954 78.1446 19.1425 77.8856 19.2367C77.6502 19.3309 77.4382 19.4721 77.2734 19.637C77.1086 19.8018 77.0144 20.0372 77.0144 20.3198C77.0144 20.673 77.1321 20.932 77.3676 21.1439C77.6031 21.3558 77.9091 21.5206 78.3094 21.6854C78.6861 21.8267 79.1335 21.9444 79.628 22.0386C80.1224 22.1328 80.6404 22.2505 81.1584 22.3682C81.6764 22.486 82.1709 22.6272 82.6653 22.7921C83.1598 22.9569 83.6072 23.1688 83.9839 23.4749C84.3606 23.7574 84.6903 24.1106 84.9257 24.5344C85.1612 24.9582 85.2789 25.4998 85.2789 26.112C85.2789 26.8654 85.1141 27.5012 84.7609 28.0427C84.4077 28.5607 83.9603 29.0081 83.4188 29.3377C82.8773 29.6673 82.2415 29.9028 81.5822 30.0676C80.8994 30.2089 80.2402 30.3031 79.5809 30.3031C78.7803 30.3031 78.0269 30.2089 77.3441 30.0205C76.6612 29.8322 76.049 29.5496 75.5546 29.1964C75.0601 28.8197 74.6599 28.3723 74.3773 27.8073C74.0948 27.2657 73.93 26.6064 73.9064 25.8294H76.7554V25.853H76.779ZM86.0794 17.1647H88.2221V13.3032H91.0475V17.1411H93.5904V19.2367H91.0475V26.0649C91.0475 26.371 91.0711 26.6064 91.0946 26.8419C91.1182 27.0538 91.1888 27.2422 91.2594 27.3834C91.3536 27.5247 91.4949 27.6424 91.6597 27.7131C91.8481 27.7837 92.0835 27.8308 92.4132 27.8308C92.6015 27.8308 92.8134 27.8308 93.0018 27.8073C93.1902 27.7837 93.4021 27.7602 93.5904 27.7131V29.9028C93.2844 29.9499 92.9783 29.9734 92.6722 29.997C92.3661 30.0441 92.0835 30.0441 91.7539 30.0441C91.0004 30.0441 90.4118 29.9734 89.9644 29.8322C89.5171 29.6909 89.1639 29.479 88.9049 29.22C88.6459 28.9374 88.4811 28.6078 88.3869 28.2075C88.2927 27.8072 88.2456 27.3128 88.2221 26.7948V19.2602H86.0794V17.1176V17.1647ZM95.5683 17.1647H98.2289V18.907H98.276C98.6763 18.1536 99.2178 17.6356 99.9242 17.306C100.631 16.9763 101.384 16.8115 102.232 16.8115C103.244 16.8115 104.115 16.9763 104.869 17.3531C105.622 17.7062 106.234 18.1771 106.729 18.8129C107.223 19.4251 107.6 20.155 107.835 20.9791C108.071 21.8031 108.212 22.6979 108.212 23.6161C108.212 24.4873 108.094 25.3114 107.883 26.112C107.647 26.9125 107.317 27.6424 106.87 28.2546C106.423 28.8668 105.858 29.3612 105.151 29.738C104.445 30.1147 103.644 30.3031 102.703 30.3031C102.302 30.3031 101.878 30.256 101.478 30.1853C101.078 30.1147 100.678 29.997 100.301 29.8322C99.9242 29.6673 99.571 29.4554 99.2649 29.1964C98.9353 28.9374 98.6763 28.6313 98.4644 28.3017H98.4173V34.6825H95.5918V17.1647H95.5683ZM105.434 23.5691C105.434 23.004 105.363 22.4389 105.198 21.8973C105.057 21.3558 104.822 20.8849 104.516 20.4611C104.209 20.0372 103.833 19.7076 103.409 19.4486C102.962 19.1896 102.444 19.0719 101.878 19.0719C100.701 19.0719 99.8065 19.4721 99.1943 20.2962C98.6056 21.1203 98.2995 22.227 98.2995 23.5926C98.2995 24.2519 98.3702 24.8405 98.535 25.3821C98.6998 25.9236 98.9117 26.3945 99.2414 26.7948C99.5475 27.1951 99.9242 27.5012 100.372 27.7366C100.819 27.9721 101.313 28.0898 101.902 28.0898C102.561 28.0898 103.079 27.9485 103.527 27.6895C103.974 27.4305 104.327 27.0773 104.633 26.6771C104.916 26.2532 105.128 25.7823 105.245 25.2408C105.363 24.6757 105.434 24.1342 105.434 23.5691ZM110.402 12.2908H113.227V14.9514H110.402V12.2908ZM110.402 17.1647H113.227V29.9499H110.402V17.1647ZM115.747 12.2908H118.572V29.9499H115.747V12.2908ZM127.19 30.3031C126.177 30.3031 125.259 30.1383 124.459 29.7851C123.658 29.4319 122.999 28.9845 122.434 28.3959C121.892 27.8073 121.468 27.0773 121.186 26.2532C120.903 25.4292 120.738 24.5109 120.738 23.5455C120.738 22.5801 120.88 21.6854 121.186 20.8613C121.468 20.0372 121.892 19.3309 122.434 18.7187C122.975 18.1301 123.658 17.6591 124.459 17.3295C125.259 16.9999 126.177 16.8115 127.19 16.8115C128.202 16.8115 129.121 16.9763 129.921 17.3295C130.722 17.6591 131.381 18.1301 131.946 18.7187C132.488 19.3073 132.911 20.0372 133.194 20.8613C133.477 21.6854 133.641 22.5801 133.641 23.5455C133.641 24.5344 133.5 25.4292 133.194 26.2532C132.888 27.0773 132.488 27.7837 131.946 28.3959C131.405 28.9845 130.722 29.4554 129.921 29.7851C129.121 30.1147 128.226 30.3031 127.19 30.3031ZM127.19 28.0663C127.802 28.0663 128.367 27.925 128.815 27.666C129.285 27.407 129.639 27.0538 129.945 26.63C130.251 26.2062 130.463 25.7117 130.604 25.1937C130.745 24.6522 130.816 24.1106 130.816 23.5455C130.816 23.004 130.745 22.4624 130.604 21.9209C130.463 21.3793 130.251 20.9084 129.945 20.4846C129.639 20.0608 129.262 19.7311 128.815 19.4721C128.344 19.2131 127.802 19.0719 127.19 19.0719C126.578 19.0719 126.013 19.2131 125.565 19.4721C125.094 19.7311 124.741 20.0843 124.435 20.4846C124.129 20.9084 123.917 21.3793 123.776 21.9209C123.634 22.4624 123.564 23.004 123.564 23.5455C123.564 24.1106 123.634 24.6522 123.776 25.1937C123.917 25.7352 124.129 26.2062 124.435 26.63C124.741 27.0538 125.118 27.407 125.565 27.666C126.036 27.9485 126.578 28.0663 127.19 28.0663ZM134.489 17.1647H136.632V13.3032H139.457V17.1411H142V19.2367H139.457V26.0649C139.457 26.371 139.481 26.6064 139.504 26.8419C139.528 27.0538 139.598 27.2422 139.669 27.3834C139.763 27.5247 139.904 27.6424 140.069 27.7131C140.258 27.7837 140.493 27.8308 140.823 27.8308C141.011 27.8308 141.223 27.8308 141.411 27.8073C141.6 27.7837 141.812 27.7602 142 27.7131V29.9028C141.694 29.9499 141.388 29.9734 141.082 29.997C140.776 30.0441 140.493 30.0441 140.163 30.0441C139.41 30.0441 138.821 29.9734 138.374 29.8322C137.927 29.6909 137.573 29.479 137.314 29.22C137.055 28.9374 136.891 28.6078 136.796 28.2075C136.702 27.8072 136.655 27.3128 136.632 26.7948V19.2602H134.489V17.1176V17.1647Z" fill="white"/>
<path d="M34.5619 12.2908H21.6355L17.6563 0L13.6535 12.2908L0.727051 12.2672L11.1813 19.8724L7.17852 32.1631L17.6327 24.5579L28.0869 32.1631L24.1077 19.8724L34.5619 12.2908Z" fill="#FFA53D"/>
<path d="M25.0022 22.6509L24.1075 19.8726L17.656 24.5581L25.0022 22.6509Z" fill="#BC5D04"/>
<path d="M37.9487 41.4514H57.4583V60.961H37.9487V41.4514ZM59.0841 41.4514H78.5938V60.961H59.0841V41.4514ZM80.2196 41.4514H99.7292V60.961H80.2196V41.4514ZM101.355 41.4514H120.865V60.961H101.355V41.4514ZM122.49 41.4514H142V60.961H122.49V41.4514Z" fill="#FFA53D"/>
<path d="M47.7036 54.6003L50.6707 53.8484L51.9104 57.669L47.7036 54.6003ZM54.532 49.6619H49.3091L47.7036 44.7439L46.0981 49.6619H40.8752L45.1023 52.7103L43.4968 57.6284L47.7239 54.58L50.3252 52.7103L54.532 49.6619ZM68.839 54.6003L71.8061 53.8484L73.0458 57.669L68.839 54.6003ZM75.6674 49.6619H70.4445L68.839 44.7439L67.2335 49.6619H62.0107L66.2377 52.7103L64.6323 57.6284L68.8593 54.58L71.4606 52.7103L75.6674 49.6619ZM89.9744 54.6003L92.9415 53.8484L94.1812 57.669L89.9744 54.6003ZM96.8028 49.6619H91.5799L89.9744 44.7439L88.369 49.6619H83.1461L87.3732 52.7103L85.7677 57.6284L89.9948 54.58L92.596 52.7103L96.8028 49.6619ZM111.11 54.6003L114.077 53.8484L115.317 57.669L111.11 54.6003ZM117.938 49.6619H112.715L111.11 44.7439L109.504 49.6619H104.281L108.509 52.7103L106.903 57.6284L111.13 54.58L113.731 52.7103L117.938 49.6619ZM132.245 54.6003L135.212 53.8484L136.452 57.669L132.245 54.6003ZM139.074 49.6619H133.851L132.245 44.7439L130.64 49.6619H125.417L129.644 52.7103L128.039 57.6284L132.266 54.58L134.867 52.7103L139.074 49.6619Z" fill="white"/>
</svg>
