<svg width="140" height="63" viewBox="0 0 140 63" fill="none" xmlns="http://www.w3.org/2000/svg">
<g clip-path="url(#clip0_94_99)">
<path d="M133.56 16.6899H139.984C139.171 10.4396 134.605 7.1543 128.259 7.1543C121.836 7.1543 117.541 10.5599 117.541 16.4094C117.541 23.0603 123.074 24.5426 126.015 25.1438C129.807 25.905 133.522 25.9851 133.522 29.3505C133.522 31.6342 131.664 32.7561 129.033 32.7561C125.783 32.7561 123.616 31.0733 123.074 28.0285H116.728C117.115 34.5992 121.72 38.1249 128.492 38.1249C134.76 38.1249 139.906 35.1601 139.906 28.7496C139.906 21.8583 133.986 20.6163 129.846 19.9752C127.021 19.5346 123.925 19.1339 123.925 16.0488C123.925 13.8853 125.512 12.5632 128.182 12.5632C131.278 12.5632 133.135 14.3662 133.56 16.6899Z" fill="white"/>
<path d="M113.207 8.15601H107.132V37.2033H113.207V8.15601Z" fill="white"/>
<path d="M88.7901 27.0669H96.7227C95.4844 30.1922 92.6982 31.6743 89.4865 31.6743C83.8371 31.6743 81.2059 27.147 81.2059 22.6597C81.2059 18.1322 83.6823 13.5248 89.4479 13.5248C92.9692 13.5248 95.6003 15.2076 96.6065 18.2124L103.146 18.2125C102.024 11.4415 96.297 7.55518 89.5254 7.55518C81.1672 7.55518 74.8984 13.4446 74.8984 22.7399C74.8984 32.1552 81.7087 37.7243 89.4865 37.7243C97.1483 37.7243 103.146 32.5559 103.146 24.4627V22.0988H88.7901V27.0669Z" fill="white"/>
<path d="M61.0068 7.55518C54.0416 7.55518 48.8951 12.0824 48.9338 19.6147H55.2025C55.1251 16.3294 57.1372 13.3245 60.6972 13.3245C63.7929 13.3245 65.6115 15.5682 65.6115 18.1323C65.6115 20.6965 63.7929 22.1389 60.4263 23.7015C55.8215 25.8249 52.5325 27.1871 49.1659 28.3892V37.2035H72.6154V31.2737H56.5171C56.5171 31.2737 56.5707 31.2564 56.5971 31.2482C59.3352 30.3891 61.3923 29.4558 63.8316 28.349C69.0554 25.9452 72.035 22.9401 72.035 17.8119C72.035 11.5215 67.5463 7.55518 61.0068 7.55518Z" fill="white"/>
<path d="M32.4495 26.9869C24.5556 27.027 23.2787 31.9549 22.8531 36.1217L22.6597 37.9647H21.073L20.8796 36.1217C20.454 31.9549 19.1384 27.0269 11.5153 26.9869C10.2384 24.2623 9.69667 22.0587 9.69667 19.5747C9.69667 13.3646 14.611 7.555 21.8856 7.555C29.1604 7.555 33.9973 13.3244 33.9973 19.6149C33.9973 22.0587 33.7652 24.2623 32.4495 26.9869ZM21.8084 0.0227051C9.81287 0.0227051 -0.0158691 10.1994 -0.0158691 22.6595C-0.0158691 35.1601 9.81287 45.3366 21.8084 45.3366C33.9199 45.3366 43.7099 35.1601 43.7099 22.6595C43.7099 10.1994 33.9199 0.0227051 21.8084 0.0227051Z" fill="#FFA53D"/>
</g>
<path d="M57.4876 45.314L60.2783 50.2652L65.8495 51.3893L62.003 55.5734L62.6556 61.2193L57.4876 58.8541L52.3196 61.2193L52.9721 55.5734L49.1256 51.3893L54.6969 50.2652L57.4876 45.314Z" fill="#FFA53D"/>
<path d="M75.7486 45.314L78.5393 50.2652L84.1105 51.3893L80.264 55.5734L80.9165 61.2193L75.7486 58.8541L70.5806 61.2193L71.2331 55.5734L67.3866 51.3893L72.9579 50.2652L75.7486 45.314Z" fill="#FFA53D"/>
<path d="M94.3477 45.314L97.031 50.2652L102.388 51.3893L98.6894 55.5734L99.3169 61.2193L94.3477 58.8541L89.3785 61.2193L90.0059 55.5734L86.3073 51.3893L91.6643 50.2652L94.3477 45.314Z" fill="#FFA53D"/>
<path d="M112.947 45.314L115.737 50.2652L121.309 51.3893L117.462 55.5734L118.115 61.2193L112.947 58.8541L107.779 61.2193L108.431 55.5734L104.585 51.3893L110.156 50.2652L112.947 45.314Z" fill="#FFA53D"/>
<path d="M131.208 45.314L133.998 50.2652L139.569 51.3893L135.723 55.5734L136.376 61.2193L131.208 58.8541L126.04 61.2193L126.692 55.5734L122.846 51.3893L128.417 50.2652L131.208 45.314Z" fill="#FFA53D"/>
<defs>
<clipPath id="clip0_94_99">
<rect width="140" height="45.314" fill="white" transform="translate(-0.000244141)"/>
</clipPath>
</defs>
</svg>
