<svg width="32" height="32" viewBox="0 0 32 32" fill="none" xmlns="http://www.w3.org/2000/svg">
<path fill-rule="evenodd" clip-rule="evenodd" d="M16 9.00012C15.9997 7.90678 16.2556 6.82858 16.747 5.85192C17.2384 4.87526 17.9518 4.02729 18.8299 3.37596C19.7081 2.72464 20.7266 2.28807 21.8039 2.10125C22.8811 1.91442 23.9872 1.98253 25.0333 2.30012C25.1987 2.35021 25.3483 2.44229 25.4674 2.56738C25.5866 2.69247 25.6713 2.84631 25.7134 3.0139C25.7554 3.18148 25.7533 3.3571 25.7073 3.52363C25.6612 3.69016 25.5728 3.84192 25.4507 3.96412L21.024 8.38945C21.108 9.02278 21.392 9.63478 21.8787 10.1214C22.3653 10.6081 22.9773 10.8921 23.612 10.9748L28.036 6.54945C28.1582 6.42731 28.31 6.33891 28.4765 6.29287C28.643 6.24683 28.8186 6.24472 28.9862 6.28675C29.1538 6.32878 29.3077 6.41352 29.4327 6.53269C29.5578 6.65187 29.6499 6.80143 29.7 6.96678C30.0323 8.06125 30.0913 9.22048 29.8719 10.343C29.6525 11.4656 29.1614 12.5173 28.4415 13.4061C27.7216 14.295 26.7949 14.9939 25.7423 15.4416C24.6898 15.8894 23.5436 16.0725 22.404 15.9748C21.0467 15.8601 19.9107 16.1081 19.3253 16.8201L9.79201 28.4001C9.40166 28.8718 8.91712 29.2568 8.3694 29.5304C7.82168 29.804 7.22287 29.9602 6.61129 29.989C5.99972 30.0178 5.38886 29.9186 4.81784 29.6977C4.24682 29.4769 3.72822 29.1392 3.29524 28.7063C2.86227 28.2734 2.52446 27.7549 2.30345 27.1839C2.08244 26.6129 1.9831 26.0021 2.01179 25.3905C2.04048 24.7789 2.19657 24.1801 2.47006 23.6323C2.74355 23.0845 3.12841 22.5999 3.60001 22.2094L15.1787 12.6748C15.8893 12.0881 16.1387 10.9534 16.024 9.59612C16.0077 9.39787 15.9997 9.19903 16 9.00012ZM5.48934 25.5001C5.48934 25.2349 5.5947 24.9805 5.78224 24.793C5.96977 24.6055 6.22413 24.5001 6.48934 24.5001H6.50001C6.76523 24.5001 7.01958 24.6055 7.20712 24.793C7.39465 24.9805 7.50001 25.2349 7.50001 25.5001V25.5108C7.50001 25.776 7.39465 26.0304 7.20712 26.2179C7.01958 26.4054 6.76523 26.5108 6.50001 26.5108H6.48934C6.22413 26.5108 5.96977 26.4054 5.78224 26.2179C5.5947 26.0304 5.48934 25.776 5.48934 25.5108V25.5001Z" fill="#FFA53D"/>
<path d="M13.4347 11.52L10.5 8.58666V6.49866C10.5 6.32602 10.4553 6.15632 10.3702 6.00608C10.2852 5.85584 10.1627 5.73018 10.0147 5.64133L5.01467 2.64133C4.82343 2.52669 4.59937 2.47925 4.37808 2.50655C4.1568 2.53385 3.95098 2.63432 3.79334 2.79199L2.79334 3.79199C2.63566 3.94964 2.53519 4.15545 2.50789 4.37674C2.48059 4.59803 2.52803 4.82209 2.64267 5.01333L5.64267 10.0133C5.73152 10.1613 5.85718 10.2838 6.00742 10.3689C6.15766 10.4539 6.32736 10.4986 6.5 10.4987H8.58534L11.3347 13.248L13.4347 11.5187V11.52Z" fill="#FFA53D"/>
<path fill-rule="evenodd" clip-rule="evenodd" d="M16.7413 23.1053L22.3187 28.6813C22.7365 29.0992 23.2326 29.4306 23.7786 29.6568C24.3245 29.8829 24.9097 29.9993 25.5007 29.9993C26.0916 29.9993 26.6768 29.8829 27.2228 29.6568C27.7687 29.4306 28.2648 29.0992 28.6827 28.6813C29.1005 28.2634 29.432 27.7674 29.6581 27.2214C29.8843 26.6754 30.0007 26.0903 30.0007 25.4993C30.0007 24.9084 29.8843 24.3232 29.6581 23.7772C29.432 23.2313 29.1005 22.7352 28.6827 22.3173L24.2747 17.9106C23.599 18.0064 22.9147 18.0257 22.2347 17.968C21.7093 17.9226 21.3253 17.96 21.0787 18.024C21.0006 18.0405 20.9255 18.0688 20.856 18.108L16.7413 23.1053ZM21.2933 21.292C21.4808 21.1047 21.735 20.9995 22 20.9995C22.265 20.9995 22.5192 21.1047 22.7067 21.292L25.2067 23.7933C25.3049 23.8849 25.3837 23.9953 25.4384 24.1179C25.493 24.2406 25.5224 24.373 25.5248 24.5073C25.5272 24.6416 25.5025 24.7749 25.4522 24.8994C25.4019 25.024 25.327 25.1371 25.232 25.232C25.1371 25.327 25.024 25.4018 24.8995 25.4521C24.7749 25.5024 24.6416 25.5271 24.5073 25.5248C24.373 25.5224 24.2406 25.493 24.1179 25.4384C23.9953 25.3837 23.8849 25.3049 23.7933 25.2066L21.2933 22.7066C21.1061 22.5191 21.0009 22.265 21.0009 22C21.0009 21.735 21.1061 21.4808 21.2933 21.2933V21.292Z" fill="#FFA53D"/>
</svg>
