<svg width="32" height="32" viewBox="0 0 32 32" fill="none" xmlns="http://www.w3.org/2000/svg">
<path fill-rule="evenodd" clip-rule="evenodd" d="M12.42 10.112C16.26 5.17733 22.26 2 29 2C29.2652 2 29.5196 2.10536 29.7071 2.29289C29.8946 2.48043 30 2.73478 30 3C30 9.74133 26.8227 15.74 21.888 19.5813C22.0932 20.867 22.0171 22.1819 21.6648 23.4352C21.3125 24.6886 20.6925 25.8506 19.8475 26.8411C19.0026 27.8316 17.9528 28.6269 16.7706 29.1723C15.5884 29.7177 14.3019 30.0001 13 30C12.7348 30 12.4804 29.8946 12.2929 29.7071C12.1054 29.5196 12 29.2652 12 29V23.492C10.7039 22.4685 9.53234 21.2965 8.50933 20H3C2.73478 20 2.48043 19.8946 2.29289 19.7071C2.10536 19.5196 2 19.2652 2 19C1.99989 17.6979 2.28231 16.4114 2.82776 15.2291C3.37322 14.0467 4.16871 12.9969 5.15935 12.1519C6.14998 11.3069 7.31217 10.6869 8.5657 10.3347C9.81923 9.98256 11.1342 9.90656 12.42 10.112ZM20 9C19.2044 9 18.4413 9.31607 17.8787 9.87868C17.3161 10.4413 17 11.2044 17 12C17 12.7956 17.3161 13.5587 17.8787 14.1213C18.4413 14.6839 19.2044 15 20 15C20.7957 15 21.5587 14.6839 22.1213 14.1213C22.6839 13.5587 23 12.7956 23 12C23 11.2044 22.6839 10.4413 22.1213 9.87868C21.5587 9.31607 20.7957 9 20 9Z" fill="#FFA53D"/>
<path d="M7.01338 22.9894C7.1187 22.9109 7.20752 22.8124 7.27477 22.6995C7.34202 22.5867 7.38639 22.4617 7.40533 22.3317C7.42427 22.2017 7.41743 22.0692 7.38518 21.9418C7.35293 21.8145 7.29591 21.6947 7.21738 21.5894C7.13885 21.4841 7.04035 21.3953 6.92749 21.328C6.81463 21.2608 6.68963 21.2164 6.55963 21.1975C6.42963 21.1785 6.29717 21.1854 6.16981 21.2176C6.04246 21.2499 5.9227 21.3069 5.81738 21.3854C4.79457 22.1462 3.99926 23.1723 3.51749 24.3525C3.03572 25.5327 2.88584 26.8222 3.08405 28.0814C3.11628 28.2912 3.2144 28.4852 3.36421 28.6355C3.51402 28.7858 3.70775 28.8845 3.91738 28.9174C5.17676 29.1155 6.46632 28.9654 7.64654 28.4834C8.82677 28.0014 9.85271 27.2058 10.6134 26.1827C10.6944 26.0777 10.7538 25.9576 10.788 25.8294C10.8221 25.7012 10.8305 25.5675 10.8124 25.436C10.7944 25.3046 10.7504 25.178 10.683 25.0637C10.6156 24.9494 10.5261 24.8497 10.4198 24.7704C10.3135 24.691 10.1924 24.6336 10.0636 24.6015C9.93491 24.5694 9.80107 24.5633 9.66992 24.5834C9.53878 24.6035 9.41295 24.6496 9.29978 24.7188C9.1866 24.7881 9.08834 24.8791 9.01072 24.9867C8.54574 25.6121 7.94081 26.1199 7.24437 26.4695C6.54793 26.8191 5.77932 27.0008 5.00005 27.0001C5.00005 25.3601 5.78938 23.9027 7.01338 22.9894Z" fill="#FFA53D"/>
</svg>
