<svg width="24" height="24" viewBox="0 0 24 24" fill="none" xmlns="http://www.w3.org/2000/svg">
<path fill-rule="evenodd" clip-rule="evenodd" d="M6.75 2.25049C6.94891 2.25049 7.13968 2.32951 7.28033 2.47016C7.42098 2.61081 7.5 2.80158 7.5 3.00049V4.50049H16.5V3.00049C16.5 2.80158 16.579 2.61081 16.7197 2.47016C16.8603 2.32951 17.0511 2.25049 17.25 2.25049C17.4489 2.25049 17.6397 2.32951 17.7803 2.47016C17.921 2.61081 18 2.80158 18 3.00049V4.50049H18.75C19.5456 4.50049 20.3087 4.81656 20.8713 5.37917C21.4339 5.94178 21.75 6.70484 21.75 7.50049V18.7505C21.75 19.5461 21.4339 20.3092 20.8713 20.8718C20.3087 21.4344 19.5456 21.7505 18.75 21.7505H5.25C4.45435 21.7505 3.69129 21.4344 3.12868 20.8718C2.56607 20.3092 2.25 19.5461 2.25 18.7505V7.50049C2.25 6.70484 2.56607 5.94178 3.12868 5.37917C3.69129 4.81656 4.45435 4.50049 5.25 4.50049H6V3.00049C6 2.80158 6.07902 2.61081 6.21967 2.47016C6.36032 2.32951 6.55109 2.25049 6.75 2.25049ZM20.25 11.2505C20.25 10.8527 20.092 10.4711 19.8107 10.1898C19.5294 9.90852 19.1478 9.75049 18.75 9.75049H5.25C4.85218 9.75049 4.47064 9.90852 4.18934 10.1898C3.90804 10.4711 3.75 10.8527 3.75 11.2505V18.7505C3.75 19.1483 3.90804 19.5298 4.18934 19.8111C4.47064 20.0925 4.85218 20.2505 5.25 20.2505H18.75C19.1478 20.2505 19.5294 20.0925 19.8107 19.8111C20.092 19.5298 20.25 19.1483 20.25 18.7505V11.2505Z" fill="#FFA53D"/>
</svg>
