<svg width="30" height="30" viewBox="0 0 30 30" fill="none" xmlns="http://www.w3.org/2000/svg">
<path fill-rule="evenodd" clip-rule="evenodd" d="M20.9 9.64991C21.0758 9.47434 21.3141 9.37573 21.5625 9.37573C21.8109 9.37573 22.0492 9.47434 22.225 9.64991L26.9125 14.3374C27.0881 14.5132 27.1867 14.7515 27.1867 14.9999C27.1867 15.2483 27.0881 15.4866 26.9125 15.6624L22.225 20.3499C22.1392 20.442 22.0357 20.5159 21.9207 20.5671C21.8057 20.6184 21.6815 20.6459 21.5557 20.6481C21.4298 20.6504 21.3047 20.6272 21.188 20.5801C21.0713 20.5329 20.9652 20.4627 20.8762 20.3737C20.7872 20.2847 20.717 20.1786 20.6698 20.0619C20.6227 19.9452 20.5995 19.8201 20.6018 19.6943C20.604 19.5684 20.6315 19.4442 20.6828 19.3292C20.734 19.2142 20.8079 19.1107 20.9 19.0249L23.9875 15.9374H3.75C3.50136 15.9374 3.2629 15.8386 3.08709 15.6628C2.91127 15.487 2.8125 15.2485 2.8125 14.9999C2.8125 14.7513 2.91127 14.5128 3.08709 14.337C3.2629 14.1612 3.50136 14.0624 3.75 14.0624H23.9875L20.9 10.9749C20.7244 10.7991 20.6258 10.5608 20.6258 10.3124C20.6258 10.064 20.7244 9.82569 20.9 9.64991Z" fill="white"/>
</svg>
