<svg width="140" height="18" viewBox="0 0 140 18" fill="none" xmlns="http://www.w3.org/2000/svg">
<path d="M8.38496 6.62954C8.33358 6.11145 8.11307 5.70897 7.72344 5.4221C7.33381 5.13523 6.80502 4.99179 6.13708 4.99179C5.68322 4.99179 5.30001 5.05602 4.98745 5.18447C4.67488 5.30864 4.43511 5.48205 4.26812 5.70469C4.10542 5.92734 4.02407 6.17996 4.02407 6.46255C4.0155 6.69804 4.06474 6.90356 4.17179 7.07911C4.28311 7.25466 4.43511 7.40666 4.62778 7.53511C4.82046 7.65928 5.04311 7.76846 5.29573 7.86266C5.54835 7.95258 5.81809 8.02965 6.10497 8.09387L7.28671 8.37646C7.86046 8.50491 8.3871 8.67618 8.86665 8.89027C9.3462 9.10435 9.76152 9.36767 10.1126 9.68024C10.4637 9.9928 10.7356 10.361 10.9283 10.7849C11.1252 11.2088 11.2259 11.6948 11.2301 12.2428C11.2259 13.0478 11.0203 13.7457 10.6136 14.3366C10.2111 14.9232 9.62879 15.3792 8.86665 15.7046C8.10879 16.0257 7.19465 16.1863 6.12423 16.1863C5.06238 16.1863 4.13753 16.0235 3.3497 15.6981C2.56615 15.3727 1.95387 14.891 1.51286 14.2531C1.07613 13.6108 0.847058 12.8166 0.82565 11.8703H3.51669C3.54666 12.3113 3.67297 12.6796 3.89562 12.975C4.12255 13.2661 4.4244 13.4867 4.80119 13.6365C5.18226 13.7821 5.61257 13.8549 6.09212 13.8549C6.5631 13.8549 6.97201 13.7864 7.31882 13.6494C7.66992 13.5123 7.94181 13.3218 8.13448 13.0778C8.32716 12.8337 8.4235 12.5532 8.4235 12.2364C8.4235 11.941 8.33572 11.6926 8.16017 11.4914C7.98891 11.2901 7.73629 11.1189 7.40231 10.9776C7.07263 10.8363 6.66801 10.7078 6.18846 10.5922L4.75623 10.2326C3.64728 9.96283 2.77167 9.54108 2.12942 8.96734C1.48717 8.39359 1.16818 7.62075 1.17247 6.6488C1.16818 5.85241 1.38013 5.15664 1.8083 4.56148C2.24075 3.96633 2.83376 3.50177 3.58734 3.1678C4.34091 2.83382 5.19725 2.66684 6.15635 2.66684C7.13257 2.66684 7.98462 2.83382 8.71251 3.1678C9.44468 3.50177 10.0141 3.96633 10.4209 4.56148C10.8277 5.15664 11.0375 5.84599 11.0503 6.62954H8.38496ZM13.1007 16V2.84667H15.8817V8.2737H21.5271V2.84667H24.3016V16H21.5271V10.5665H15.8817V16H13.1007ZM29.3754 2.84667V16H26.5944V2.84667H29.3754ZM42.6652 2.84667V16H40.2632L34.5407 7.72137H34.4444V16H31.6634V2.84667H34.104L39.7815 11.1189H39.8971V2.84667H42.6652ZM44.9628 16V2.84667H53.8259V5.13951H47.7438V8.2737H53.3699V10.5665H47.7438V13.7072H53.8516V16H44.9628Z" fill="url(#paint0_linear_145_454)"/>
<path d="M59.8085 16V2.84667H63.662C64.3984 2.84667 65.0492 3.01151 65.6144 3.3412C66.1839 3.67089 66.6292 4.12475 66.9503 4.70278C67.2757 5.28081 67.4384 5.94661 67.4384 6.70018C67.4384 7.4452 67.2757 8.10672 66.9503 8.68474C66.6292 9.25849 66.1839 9.71021 65.6144 10.0399C65.0492 10.3653 64.3984 10.528 63.662 10.528H60.014V10.117H63.662C64.3214 10.117 64.9037 9.97139 65.4089 9.68024C65.9141 9.38908 66.3102 8.9866 66.5971 8.4728C66.8839 7.959 67.0274 7.36813 67.0274 6.70018C67.0274 6.02796 66.8839 5.43281 66.5971 4.91472C66.3102 4.39664 65.9141 3.99202 65.4089 3.70087C64.9037 3.40543 64.3214 3.25771 63.662 3.25771H60.2195V16H59.8085ZM70.7765 16V2.84667H74.63C75.3665 2.84667 76.0173 3.00295 76.5825 3.31551C77.152 3.62808 77.5973 4.06481 77.9184 4.62571C78.2438 5.18661 78.4065 5.84385 78.4065 6.59742C78.4065 7.34244 78.2438 7.99539 77.9184 8.55629C77.5973 9.11291 77.152 9.5475 76.5825 9.86007C76.0173 10.1683 75.3665 10.3225 74.63 10.3225H70.9821V9.91145H74.63C75.2894 9.91145 75.8717 9.77443 76.377 9.50041C76.8822 9.22638 77.2783 8.84103 77.5651 8.34435C77.852 7.84768 77.9954 7.26537 77.9954 6.59742C77.9954 5.9252 77.852 5.33861 77.5651 4.83765C77.2783 4.3367 76.8822 3.9492 76.377 3.67518C75.8717 3.39687 75.2894 3.25771 74.63 3.25771H71.1876V16H70.7765ZM75.7861 10.0142L79.0231 16H78.5606L75.3237 10.0142H75.7861ZM81.9036 16V2.84667H88.917V3.25771H82.3146V9.21781H88.5316V9.62886H82.3146V15.589H89.0968V16H81.9036ZM92.4654 2.84667H92.8251L98.1943 15.3834H98.2457L103.615 2.84667H103.975V16H103.564V4.13117H103.512L98.4255 16H98.0145L92.9278 4.13117H92.8764V16H92.4654V2.84667ZM108.49 2.84667V16H108.079V2.84667H108.49ZM121.643 2.84667H122.054V11.5556C122.054 12.4462 121.846 13.2426 121.431 13.9448C121.02 14.6427 120.459 15.195 119.748 15.6018C119.038 16.0043 118.23 16.2055 117.327 16.2055C116.432 16.2055 115.627 16.0021 114.912 15.5954C114.197 15.1886 113.632 14.6363 113.217 13.9384C112.801 13.2362 112.596 12.4419 112.6 11.5556V2.84667H113.011V11.5556C113.011 12.3691 113.197 13.0949 113.57 13.7328C113.947 14.3708 114.46 14.8739 115.111 15.2421C115.762 15.6104 116.501 15.7945 117.327 15.7945C118.153 15.7945 118.892 15.6104 119.543 15.2421C120.194 14.8739 120.705 14.3708 121.078 13.7328C121.455 13.0949 121.643 12.3691 121.643 11.5556V2.84667ZM126.164 2.84667H126.524L131.893 15.3834H131.945L137.314 2.84667H137.674V16H137.263V4.13117H137.211L132.124 16H131.713L126.627 4.13117H126.575V16H126.164V2.84667Z" fill="url(#paint1_linear_145_454)"/>
<defs>
<linearGradient id="paint0_linear_145_454" x1="28.9051" y1="2.2" x2="28.9051" y2="18" gradientUnits="userSpaceOnUse">
<stop stop-color="#FCFCFC"/>
<stop offset="1" stop-color="#969696"/>
</linearGradient>
<linearGradient id="paint1_linear_145_454" x1="100.833" y1="2.2" x2="100.833" y2="18" gradientUnits="userSpaceOnUse">
<stop stop-color="#FCFCFC"/>
<stop offset="1" stop-color="#969696"/>
</linearGradient>
</defs>
</svg>
