<svg width="1920" height="7511" viewBox="0 0 1920 7511" fill="none" xmlns="http://www.w3.org/2000/svg">
<g filter="url(#filter0_f_11_3277)">
<rect x="-34" y="1168" width="2004" height="228" fill="black"/>
</g>
<g filter="url(#filter1_f_11_3277)">
<rect x="-33.9999" y="2003" width="2004" height="756" transform="rotate(-90 -33.9999 2003)" fill="url(#paint0_linear_11_3277)"/>
</g>
<g opacity="0.3" filter="url(#filter2_f_11_3277)">
<circle cx="-134" cy="1970" r="324" fill="#FCA23A"/>
</g>
<g opacity="0.4" filter="url(#filter3_f_11_3277)">
<circle cx="1899" cy="1121" r="245" fill="#FCA23A"/>
</g>
<g opacity="0.3" filter="url(#filter4_f_11_3277)">
<circle cx="1880" cy="3873" r="324" fill="#FCA23A"/>
</g>
<circle cx="-0.249126" cy="1969.75" r="81.7866" transform="rotate(-1.2795 -0.249126 1969.75)" fill="url(#paint1_linear_11_3277)" fill-opacity="0.5"/>
<circle cx="-0.249137" cy="5203.59" r="81.7866" transform="rotate(33.7276 -0.249137 5203.59)" fill="url(#paint2_linear_11_3277)" fill-opacity="0.5"/>
<g opacity="0.08">
<line x1="80.5" y1="2.18557e-08" x2="80.4997" y2="7040" stroke="white" stroke-dasharray="6 6"/>
<line x1="1838.5" y1="2.21397e-08" x2="1838.5" y2="7040" stroke="white" stroke-dasharray="6 6"/>
<line x1="373.5" y1="2.18557e-08" x2="373.5" y2="2109" stroke="white" stroke-dasharray="6 6"/>
<line x1="666.5" y1="2.21397e-08" x2="666.5" y2="2109" stroke="white" stroke-dasharray="6 6"/>
<line x1="959.5" y1="2.21397e-08" x2="959.5" y2="2109" stroke="white" stroke-dasharray="6 6"/>
<line x1="1252.5" y1="2.21397e-08" x2="1252.5" y2="2109" stroke="white" stroke-dasharray="6 6"/>
<line x1="1545.5" y1="2.21397e-08" x2="1545.5" y2="2109" stroke="white" stroke-dasharray="6 6"/>
<line x1="373.5" y1="3977" x2="373.5" y2="6392" stroke="white" stroke-dasharray="6 6"/>
<line x1="666.5" y1="3977" x2="666.5" y2="6392" stroke="white" stroke-dasharray="6 6"/>
<line x1="959.5" y1="3977" x2="959.5" y2="6392" stroke="white" stroke-dasharray="6 6"/>
<line x1="1252.5" y1="3977" x2="1252.5" y2="6392" stroke="white" stroke-dasharray="6 6"/>
<line x1="1545.5" y1="3977" x2="1545.5" y2="6392" stroke="white" stroke-dasharray="6 6"/>
</g>
<g opacity="0.3" filter="url(#filter5_f_11_3277)">
<circle cy="5249" r="324" fill="#FCA23A"/>
</g>
<circle cx="81.7866" cy="81.7866" r="81.7866" transform="matrix(-0.831687 0.555245 0.555245 0.831687 1970.86 6628.16)" fill="url(#paint3_linear_11_3277)" fill-opacity="0.5"/>
<g opacity="0.3" filter="url(#filter6_f_11_3277)">
<circle cx="324" cy="324" r="324" transform="matrix(-1 0 0 1 2272 6463)" fill="#FCA23A"/>
</g>
<defs>
<filter id="filter0_f_11_3277" x="-84" y="1118" width="2104" height="328" filterUnits="userSpaceOnUse" color-interpolation-filters="sRGB">
<feFlood flood-opacity="0" result="BackgroundImageFix"/>
<feBlend mode="normal" in="SourceGraphic" in2="BackgroundImageFix" result="shape"/>
<feGaussianBlur stdDeviation="25" result="effect1_foregroundBlur_11_3277"/>
</filter>
<filter id="filter1_f_11_3277" x="-84" y="-51.0002" width="856" height="2104" filterUnits="userSpaceOnUse" color-interpolation-filters="sRGB">
<feFlood flood-opacity="0" result="BackgroundImageFix"/>
<feBlend mode="normal" in="SourceGraphic" in2="BackgroundImageFix" result="shape"/>
<feGaussianBlur stdDeviation="25" result="effect1_foregroundBlur_11_3277"/>
</filter>
<filter id="filter2_f_11_3277" x="-858" y="1246" width="1448" height="1448" filterUnits="userSpaceOnUse" color-interpolation-filters="sRGB">
<feFlood flood-opacity="0" result="BackgroundImageFix"/>
<feBlend mode="normal" in="SourceGraphic" in2="BackgroundImageFix" result="shape"/>
<feGaussianBlur stdDeviation="200" result="effect1_foregroundBlur_11_3277"/>
</filter>
<filter id="filter3_f_11_3277" x="1504" y="726" width="790" height="790" filterUnits="userSpaceOnUse" color-interpolation-filters="sRGB">
<feFlood flood-opacity="0" result="BackgroundImageFix"/>
<feBlend mode="normal" in="SourceGraphic" in2="BackgroundImageFix" result="shape"/>
<feGaussianBlur stdDeviation="75" result="effect1_foregroundBlur_11_3277"/>
</filter>
<filter id="filter4_f_11_3277" x="1156" y="3149" width="1448" height="1448" filterUnits="userSpaceOnUse" color-interpolation-filters="sRGB">
<feFlood flood-opacity="0" result="BackgroundImageFix"/>
<feBlend mode="normal" in="SourceGraphic" in2="BackgroundImageFix" result="shape"/>
<feGaussianBlur stdDeviation="200" result="effect1_foregroundBlur_11_3277"/>
</filter>
<filter id="filter5_f_11_3277" x="-724" y="4525" width="1448" height="1448" filterUnits="userSpaceOnUse" color-interpolation-filters="sRGB">
<feFlood flood-opacity="0" result="BackgroundImageFix"/>
<feBlend mode="normal" in="SourceGraphic" in2="BackgroundImageFix" result="shape"/>
<feGaussianBlur stdDeviation="200" result="effect1_foregroundBlur_11_3277"/>
</filter>
<filter id="filter6_f_11_3277" x="1224" y="6063" width="1448" height="1448" filterUnits="userSpaceOnUse" color-interpolation-filters="sRGB">
<feFlood flood-opacity="0" result="BackgroundImageFix"/>
<feBlend mode="normal" in="SourceGraphic" in2="BackgroundImageFix" result="shape"/>
<feGaussianBlur stdDeviation="200" result="effect1_foregroundBlur_11_3277"/>
</filter>
<linearGradient id="paint0_linear_11_3277" x1="1031.5" y1="2030" x2="1031.5" y2="2759" gradientUnits="userSpaceOnUse">
<stop/>
<stop offset="1" stop-opacity="0.3"/>
</linearGradient>
<linearGradient id="paint1_linear_11_3277" x1="53.9345" y1="1912.84" x2="-55.1143" y2="2037.22" gradientUnits="userSpaceOnUse">
<stop stop-color="#FCA23A"/>
<stop offset="1" stop-color="#1B1F14"/>
</linearGradient>
<linearGradient id="paint2_linear_11_3277" x1="53.9345" y1="5146.68" x2="-55.1143" y2="5271.07" gradientUnits="userSpaceOnUse">
<stop stop-color="#FCA23A"/>
<stop offset="1" stop-color="#1B1F14"/>
</linearGradient>
<linearGradient id="paint3_linear_11_3277" x1="135.97" y1="24.8768" x2="26.9214" y2="149.261" gradientUnits="userSpaceOnUse">
<stop stop-color="#FCA23A"/>
<stop offset="1" stop-color="#1B1F14"/>
</linearGradient>
</defs>
</svg>
