<svg width="56" height="56" viewBox="0 0 56 56" fill="none" xmlns="http://www.w3.org/2000/svg">
<path d="M53.2001 25.9839C52.3041 24.8639 42.8961 23.0719 39.7601 23.0719C39.2001 23.0719 38.6401 22.9599 38.3041 22.7359C29.7921 18.7039 29.7921 18.5919 28.8961 18.3679C21.1681 16.6879 14.6721 17.5839 9.40812 21.0559C7.95212 22.0639 6.72012 21.2799 4.36812 21.7279C3.24812 21.9519 2.46412 22.8479 2.35212 23.9679C2.24012 24.9759 2.01612 25.8719 1.56812 26.6559C1.12012 27.5519 1.12012 27.9999 1.12012 28.5599C1.23212 31.3599 3.02412 33.5999 5.37612 34.6079V33.8239C5.37612 30.0159 8.51212 26.9919 12.2081 26.9919C16.0161 26.9919 19.0401 30.1279 19.0401 33.8239C19.0401 34.2719 19.0401 34.8319 18.9281 35.2799H39.2001C39.0881 34.8319 38.9761 34.2719 38.9761 33.8239C38.9761 30.0159 42.1121 26.9919 45.8081 26.9919C49.5041 26.9919 52.6401 30.1279 52.6401 33.8239C52.6401 34.1599 52.6401 34.6079 52.5281 34.9439C53.6481 34.3839 54.5441 33.3759 54.6561 32.0319C54.9921 29.7919 54.5441 27.8879 53.2001 25.9839ZM13.5521 22.9599L11.7601 22.3999C14.6721 20.7199 18.0321 19.9359 21.8401 19.9359L22.4001 22.9599H13.5521ZM24.6401 22.9599L24.0801 20.0479C25.5361 20.1599 26.9921 20.3839 28.4481 20.7199C28.8961 20.8319 28.8961 20.8319 33.4881 23.0719H24.6401V22.9599Z" fill="white"/>
<path d="M12.208 38.4159C14.784 38.4159 16.8 36.3999 16.8 33.8239C16.8 31.2479 14.672 29.2319 12.208 29.2319C9.63197 29.2319 7.61597 31.3599 7.61597 33.8239C7.61597 36.2879 9.63197 38.4159 12.208 38.4159Z" fill="white"/>
<path d="M45.9201 38.4159C48.4562 38.4159 50.5121 36.36 50.5121 33.8239C50.5121 31.2878 48.4562 29.2319 45.9201 29.2319C43.384 29.2319 41.3281 31.2878 41.3281 33.8239C41.3281 36.36 43.384 38.4159 45.9201 38.4159Z" fill="white"/>
</svg>
