<svg width="56" height="56" viewBox="0 0 56 56" fill="none" xmlns="http://www.w3.org/2000/svg">
<path d="M2.84906 24.0231L2.84909 24.0231L2.84964 24.0176C2.94033 23.1107 3.56686 22.399 4.46397 22.2186C5.37652 22.0451 6.09654 22.0681 6.77749 22.0899C6.9247 22.0946 7.07008 22.0992 7.21519 22.1018C8.03412 22.1164 8.83271 22.0605 9.68792 21.4703C14.81 18.0938 21.1561 17.1985 28.7823 18.8548C29.172 18.9525 29.3612 19.0191 30.5292 19.5753C30.8762 19.7406 31.3086 19.9485 31.8563 20.2118C33.1496 20.8336 35.0857 21.7645 38.0601 23.1736C38.5157 23.4616 39.1748 23.5719 39.7601 23.5719C41.2742 23.5719 44.3684 24.0107 47.2193 24.5976C48.6389 24.8899 49.9799 25.2152 51.016 25.5342C51.535 25.6941 51.9668 25.8491 52.2898 25.9936C52.4513 26.0659 52.5774 26.1319 52.6701 26.1901C52.7161 26.2189 52.7502 26.2436 52.7745 26.2636C52.7865 26.2734 52.7952 26.2813 52.8012 26.2872L52.8049 26.2911C54.0651 28.0846 54.4772 29.854 54.1616 31.9577L54.1592 31.974L54.1578 31.9904C54.0925 32.7745 53.7082 33.4377 53.1401 33.9384C53.1402 33.9095 53.1401 33.8818 53.1401 33.8555L53.1401 33.8239C53.1401 29.8517 49.7803 26.4919 45.8081 26.4919C41.8413 26.4919 38.4761 29.7344 38.4761 33.8239C38.4761 34.126 38.5196 34.4618 38.5786 34.7799H19.5111C19.5402 34.4462 19.5402 34.1153 19.5401 33.8518L19.5401 33.8239C19.5401 29.8571 16.2976 26.4919 12.2081 26.4919C8.24871 26.4919 4.88867 29.7224 4.87615 33.801C3.03839 32.7495 1.71566 30.8498 1.62012 28.5497C1.62015 28.2717 1.62182 28.0661 1.66729 27.8274C1.7123 27.5911 1.80486 27.3024 2.00939 26.8914C2.49882 26.0295 2.73344 25.0637 2.84906 24.0231ZM13.403 23.4371L13.4758 23.4599H13.5521H22.4001H23.0012L22.8918 22.8688L22.3318 19.8448L22.256 19.4359H21.8401C17.9621 19.4359 14.5122 20.2349 11.5103 21.9668L10.5221 22.5369L11.611 22.8771L13.403 23.4371ZM24.1185 19.5494L23.4654 19.4991L23.5891 20.1423L24.1401 23.0075V23.0719V23.5719H24.6401H33.4881L33.7073 22.6225L33.3078 22.4276C29.1535 20.401 29.0687 20.3596 28.5694 20.2348L28.5694 20.2347L28.5605 20.2327C27.0807 19.8912 25.6 19.6633 24.1185 19.5494Z" stroke="white"/>
<path d="M16.3 33.8239C16.3 36.1238 14.5078 37.9159 12.208 37.9159C9.916 37.9159 8.11597 36.0197 8.11597 33.8239C8.11597 31.6281 9.916 29.7319 12.208 29.7319C14.4038 29.7319 16.3 31.532 16.3 33.8239Z" stroke="white"/>
<path d="M50.0121 33.8239C50.0121 36.0839 48.1801 37.9159 45.9201 37.9159C43.6602 37.9159 41.8281 36.0839 41.8281 33.8239C41.8281 31.564 43.6602 29.7319 45.9201 29.7319C48.1801 29.7319 50.0121 31.564 50.0121 33.8239Z" stroke="white"/>
</svg>
