<svg width="56" height="56" viewBox="0 0 56 56" fill="none" xmlns="http://www.w3.org/2000/svg">
<path d="M15.6281 33.936C15.6281 36.4434 13.5955 38.476 11.0881 38.476C8.58072 38.476 6.5481 36.4434 6.5481 33.936C6.5481 31.4286 8.58072 29.396 11.0881 29.396C13.5955 29.396 15.6281 31.4286 15.6281 33.936Z" stroke="white"/>
<path d="M49.2279 33.936C49.2279 36.4434 47.1953 38.476 44.6879 38.476C42.1806 38.476 40.1479 36.4434 40.1479 33.936C40.1479 31.4286 42.1806 29.396 44.6879 29.396C47.1953 29.396 49.2279 31.4286 49.2279 33.936Z" stroke="white"/>
<path d="M54.2731 29.0787L54.2739 29.084C54.4868 30.468 54.3756 31.7094 53.8649 32.8331L53.8648 32.833L53.8605 32.843C53.6055 33.4379 53.102 33.8971 52.4664 34.1993C52.4681 34.1161 52.4681 34.0366 52.4681 33.9617L52.4681 33.936C52.4681 29.6278 48.9962 26.156 44.6881 26.156C40.3799 26.156 36.9081 29.6278 36.9081 33.936C36.9081 34.3376 36.9602 34.7354 37.027 35.116H18.6456C18.7094 34.7383 18.7561 34.3175 18.7561 33.936C18.7561 29.6278 15.2842 26.156 10.9761 26.156C6.66792 26.156 3.19606 29.6278 3.19606 33.936C3.19606 33.9548 3.19634 33.9736 3.19685 33.9922C2.18752 33.3098 1.53434 32.1024 1.61895 30.8332L1.62006 30.8166V30.8C1.62006 30.311 1.71655 29.7001 1.92877 28.8429C1.98439 28.7241 2.01597 28.6294 2.04129 28.5534L2.0424 28.5501C2.06928 28.4694 2.08811 28.4139 2.12727 28.3356L2.13141 28.3273L2.13524 28.3189C2.70996 27.0545 3.06523 25.883 3.18482 24.8088C3.28511 23.9586 3.58141 23.3321 4.01784 22.6576C4.19757 22.3798 4.3963 22.1009 4.61662 21.7917C4.67018 21.7166 4.725 21.6396 4.78114 21.5605C5.06504 21.1602 5.37378 20.7153 5.6907 20.1967L5.6961 20.1878L5.70114 20.1788C6.17901 19.3186 7.04868 18.7248 8.1535 18.5239L8.15351 18.5239L8.16027 18.5226C10.9687 17.9719 16.6986 17.5521 22.3684 17.5939C25.1988 17.6149 27.9999 17.7508 30.4007 18.0401C32.8165 18.3312 34.7695 18.7714 35.9457 19.3718C35.9466 19.3722 35.9476 19.3727 35.9485 19.3732L42.1029 22.6182L42.1028 22.6183L42.1124 22.6232C42.6031 22.8685 42.8638 22.9627 44.057 23.3136C44.3577 23.4021 44.7192 23.5073 45.1608 23.6357C46.4717 24.0171 48.488 24.6038 51.713 25.567L51.7238 25.5703L51.7348 25.573C52.4839 25.7603 53.0497 26.2246 53.4379 26.904C53.8711 27.662 54.1737 28.3831 54.2731 29.0787ZM13.7688 23.2359L14.2761 23.2433V22.736V19.488V18.9577L13.7467 18.9888C11.8223 19.102 10.1216 19.3285 8.42159 19.6682C7.60809 19.8059 7.05534 20.2236 6.65606 20.756L6.64523 20.7704L6.63547 20.7856L5.62747 22.3536L5.14065 23.1109L6.04081 23.1239L13.7688 23.2359ZM15.5161 23.408V23.6151L15.6625 23.7615L16.7825 24.8815C16.9918 25.0908 17.2172 25.2457 17.4746 25.3446C17.7297 25.4428 17.9903 25.476 18.2561 25.476H25.7081H26.2081H26.3201V24.976H26.7081V19.488V19.0165L26.2374 18.9888C22.4118 18.7638 19.0357 18.7638 15.9976 18.8763L15.5161 18.8941V19.376V23.408ZM41.8131 24.3132L41.9075 23.9356L41.5646 23.7515L35.5166 20.5035L35.5102 20.5L35.5037 20.4967C33.611 19.5504 32.0663 19.447 29.5647 19.2796C29.257 19.259 28.9348 19.2375 28.5957 19.2132L28.0601 19.175V19.712V25.088V25.588H28.5601H40.3201C40.7079 25.588 41.0474 25.3986 41.2892 25.1754C41.5336 24.9497 41.7307 24.6431 41.8131 24.3132Z" stroke="white"/>
</svg>
