<svg width="56" height="56" viewBox="0 0 56 56" fill="none" xmlns="http://www.w3.org/2000/svg">
<path d="M51.6955 26.3233L51.6986 26.3239C53.8926 26.7785 55.5 28.7599 55.5 31.0187V35.0109C55.5 36.1588 54.857 37.1558 53.9142 37.6566C53.9172 37.5628 53.9188 37.4684 53.9188 37.3734C53.9188 32.4379 49.8996 28.4187 44.9641 28.4187C40.0391 28.4187 36.0203 32.4383 36.0203 37.3734C36.0203 37.5908 36.0267 37.807 36.0414 38.0218H22.0756C22.0916 37.8081 22.1016 37.5916 22.1016 37.3734C22.1016 32.4379 18.0824 28.4187 13.1469 28.4187C8.22187 28.4187 4.20312 32.4383 4.20312 37.3734C4.20312 37.5412 4.20735 37.7102 4.21687 37.8794C2.67776 37.5372 1.82413 36.6411 1.19782 35.9836C1.00969 35.7861 0.842078 35.6101 0.682556 35.4772C0.559827 35.34 0.5 35.184 0.5 35.0109V27.8249C0.5 26.1751 1.84122 24.8249 3.5 24.8249H21.525H22.025V24.3249V14.8749C22.025 13.8808 22.8358 13.0607 23.8266 13.0455C24.6426 13.1414 25.6208 13.106 26.6533 13.0687C26.7478 13.0652 26.8428 13.0618 26.9382 13.0584C28.1084 13.0173 29.373 12.9856 30.6785 13.1179C33.2716 13.3807 36.0135 14.2882 38.3695 17.0787L38.3699 17.0792L44.8667 24.7573L44.977 24.8876L45.144 24.9233L51.6955 26.3233ZM28.2109 24.3249V24.8249H28.7109H42.1094H43.1865L42.4913 24.0022L37.3616 17.9319L37.3614 17.9317C35.5902 15.8384 33.5106 14.9666 31.829 14.6113C30.9902 14.4341 30.2512 14.3853 29.6996 14.3755C29.4274 14.3707 29.2002 14.3754 29.0338 14.3788L29.0277 14.379C28.9421 14.3807 28.8793 14.382 28.8318 14.3818C28.8102 14.3817 28.7972 14.3813 28.7907 14.381L28.2109 14.265V14.8749V24.3249ZM30.3844 30.4578H32.0031C32.9246 30.4578 33.6734 29.7089 33.6734 28.7874C33.6734 27.866 32.9246 27.1171 32.0031 27.1171H30.3844C29.4629 27.1171 28.7141 27.866 28.7141 28.7874C28.7141 29.7089 29.4629 30.4578 30.3844 30.4578Z" fill="white" stroke="white"/>
<path d="M7.5437 37.3626C7.5437 34.27 10.0652 31.7485 13.1578 31.7485C16.2504 31.7485 18.7718 34.27 18.7718 37.3626C18.7718 40.4552 16.2504 42.9767 13.1578 42.9767C10.0652 42.9767 7.5437 40.4552 7.5437 37.3626ZM39.35 37.3626C39.35 34.27 41.8714 31.7485 44.964 31.7485C48.0566 31.7485 50.5781 34.27 50.5781 37.3626C50.5781 40.4552 48.0566 42.9767 44.964 42.9767C41.8714 42.9767 39.35 40.4552 39.35 37.3626Z" fill="white" stroke="white"/>
</svg>
