<svg width="56" height="56" viewBox="0 0 56 56" fill="none" xmlns="http://www.w3.org/2000/svg">
<path d="M49.0039 34.7199C49.0039 31.9721 46.7638 29.7319 44.0159 29.7319C41.268 29.7319 39.0279 31.9721 39.0279 34.7199C39.0279 37.4678 41.268 39.7079 44.0159 39.7079C46.7638 39.7079 49.0039 37.4678 49.0039 34.7199ZM15.9639 34.7199C15.9639 31.9721 13.7238 29.7319 10.9759 29.7319C8.22805 29.7319 5.98791 31.9721 5.98791 34.7199C5.98791 37.4678 8.22805 39.7079 10.9759 39.7079C13.7238 39.7079 15.9639 37.4678 15.9639 34.7199Z" stroke="white"/>
<path d="M3.27304 23.7539L3.27312 23.754L3.2656 23.7615C2.65573 24.3714 2.25448 25.0758 2.05312 25.8812C1.6203 27.6125 1.51119 29.2325 1.72898 31.1927L1.72992 31.2011L1.73057 31.2096C1.80332 32.1554 2.19617 33.0061 2.80875 33.7192C3.30501 29.6561 6.78253 26.4919 10.976 26.4919C15.5082 26.4919 19.204 30.1878 19.204 34.7199L19.2041 34.7516C19.2041 34.9102 19.2043 35.1189 19.1869 35.3399H35.8052C35.7878 35.1189 35.7879 34.9102 35.788 34.7516C35.788 34.7408 35.788 34.7302 35.788 34.7199C35.788 30.1878 39.4839 26.4919 44.016 26.4919C48.5482 26.4919 52.244 30.1878 52.244 34.7199C52.244 34.7302 52.244 34.7408 52.2441 34.7516C52.2441 34.9029 52.2442 35.0998 52.2292 35.3095C52.9941 35.1834 53.6208 34.6764 53.8457 34.0018L53.8493 33.991L53.8534 33.9804C54.6477 31.9152 54.6052 29.6949 53.2308 27.8195C51.8444 25.9278 49.0297 24.2851 44.0566 23.5668L44.0488 23.5657L44.0412 23.5643C43.0216 23.3844 42.3796 23.1646 41.011 22.3866C40.1214 21.881 38.9016 21.1263 37.0382 19.9734C36.0953 19.39 34.9875 18.7046 33.6743 17.898L33.6546 17.8858L33.636 17.8719C33.275 17.6011 32.6879 17.3963 32.1588 17.2904C25.3895 15.9588 18.1739 15.8471 10.5086 17.2913L10.4934 17.2942L10.4781 17.2961C9.71833 17.391 9.03308 17.7712 8.42123 18.3819L3.27304 23.7539ZM25.2914 24.3555L24.812 24.3357V23.8559V18.2559V17.7005L25.3644 17.7587L25.3764 17.7599C27.4809 17.9815 29.6143 18.206 31.7516 18.6527C32.1814 18.6645 32.5907 18.8132 32.9733 19.0665L39.3497 22.9818L40.2462 23.5323L39.2532 23.8799L37.0399 24.6545C36.7198 24.8046 36.4067 24.8042 36.2009 24.804C36.1924 24.8039 36.1841 24.8039 36.176 24.8039H36.1657L36.1554 24.8035L25.2914 24.3555ZM13.052 23.1839V22.6839H13.164V18.5919V18.141L13.6126 18.0946C16.869 17.7577 20.0316 17.531 23.2019 17.6443L23.684 17.6615V18.1439V23.8559V24.3743L23.166 24.3556L13.8771 24.0199C13.5849 24.0161 13.3715 23.8636 13.2456 23.7063C13.1309 23.5629 13.052 23.3716 13.052 23.1839Z" stroke="white"/>
</svg>
