<svg width="56" height="56" viewBox="0 0 56 56" fill="none" xmlns="http://www.w3.org/2000/svg">
<path d="M8.04732 17.8509L8.03501 17.8532L8.02259 17.855C7.3279 17.9543 6.65575 18.2487 6.18744 18.7117C2.68433 22.6574 1.51707 26.4463 1.73085 29.7599L1.73102 29.7627C1.82827 31.4159 2.98365 32.8062 4.67536 33.327C4.69751 33.3286 4.71933 33.3306 4.74072 33.3331C4.7933 29.6166 8.15465 25.484 12.9919 25.484C17.9153 25.484 21.6435 29.6727 21.1765 34.3556C23.4467 34.444 25.7335 34.444 28.2239 34.444C30.6263 34.444 33.0195 34.444 35.5921 34.3536C35.0506 29.8506 38.8818 25.372 43.7919 25.372C47.9148 25.372 51.8921 28.9641 51.9278 33.742C52.7231 33.4888 53.3226 33.0469 53.7994 32.4153C54.5564 31.2684 54.6108 29.4512 53.738 27.0509C53.3497 25.9833 52.3687 25.0917 51.1858 24.7919C47.0126 23.9578 44.776 23.7666 43.4959 23.7258C43.07 23.7122 42.7779 23.7148 42.5297 23.717C42.3844 23.7183 42.2541 23.7195 42.1208 23.7172C41.7907 23.7115 41.4997 23.6815 41.1939 23.5073C38.6287 22.0574 35.9532 20.497 33.2807 18.938L32.3797 18.6377C32.3693 18.6366 32.3598 18.6356 32.352 18.6348L32.349 18.6344C32.305 18.6297 32.247 18.6228 32.1773 18.6144C32.0636 18.6005 31.9128 18.5816 31.7293 18.5586C31.6873 18.5533 31.6435 18.5479 31.5981 18.5422C31.1097 18.481 30.4223 18.3954 29.5819 18.2977C27.9007 18.1022 25.608 17.8579 23.0754 17.6626C17.9914 17.2704 12.0053 17.0812 8.04732 17.8509ZM26.645 23.3479L26.1908 23.3381L26.1572 22.885L25.9332 19.861L25.8901 19.2791L26.4718 19.3256L26.4762 19.326C27.873 19.4377 29.2771 19.5501 30.3883 19.6626C30.944 19.7189 31.4331 19.7758 31.8146 19.8337C32.005 19.8626 32.1748 19.8926 32.3156 19.9242C32.4448 19.9531 32.589 19.9916 32.7035 20.0488L32.7159 20.055L32.728 20.0619C33.1985 20.3308 33.662 20.5912 34.1201 20.8486C35.1744 21.4411 36.2007 22.0178 37.2219 22.6462L38.7913 23.612L36.949 23.5719L26.645 23.3479ZM25.0266 22.5884L25.0657 23.1356L24.5172 23.1239L19.2584 23.012C18.7317 23.0111 18.3326 22.878 18.0005 22.7673L17.9858 22.7624C17.5721 22.6245 17.1928 22.4609 16.8119 22.2967C15.8281 21.8725 14.8346 21.444 13.2159 21.444H6.71988H5.78563L6.30386 20.6667C6.53761 20.3161 6.89425 19.8386 7.26233 19.4705L7.3197 19.4131L7.39228 19.3768C7.40278 19.3716 7.41369 19.3661 7.42499 19.3604C7.61909 19.2628 7.92847 19.1071 8.26496 19.1003C8.49063 19.0815 8.73557 19.0308 9.08509 18.9584C9.23306 18.9278 9.39977 18.8933 9.5917 18.8556C10.2225 18.732 11.0537 18.5924 12.2244 18.4996C14.5615 18.3143 18.2348 18.3169 24.3586 18.991L24.7729 19.0367L24.8026 19.4524L25.0266 22.5884Z" fill="white" stroke="white"/>
<path d="M17.6523 34.6295L17.6522 34.6295L17.6543 34.6192C18.3658 31.1631 15.317 28.1142 11.8608 28.8258L11.8608 28.8259L11.8506 28.8278C7.99204 29.5386 6.46143 34.3144 9.31355 37.1665C12.1657 40.0186 16.9415 38.488 17.6523 34.6295ZM40.2255 37.1665C41.0327 37.9737 42.3635 38.5881 43.68 38.5881C46.2552 38.5881 47.7766 37.1675 48.3423 35.4201C48.9194 33.6375 48.5026 31.5138 47.1344 30.1456C45.9415 28.9527 44.6367 28.5291 43.4296 28.6007C42.2102 28.673 41.0487 29.2536 40.1721 30.143C39.2956 31.0324 38.7264 32.2081 38.6633 33.4401C38.6009 34.6603 39.0326 35.9735 40.2255 37.1665Z" fill="white" stroke="white"/>
</svg>
