<svg width="56" height="56" viewBox="0 0 56 56" fill="none" xmlns="http://www.w3.org/2000/svg">
<path d="M5.63079 21.5357L5.5239 21.8921H5.15188H3.24788C2.30901 21.8921 1.61988 22.6589 1.61988 23.5201V28.4481C1.61988 29.1799 2.18002 29.7401 2.91188 29.7401H3.13588H3.63588V30.2401V31.6961C3.63588 32.3143 4.0035 32.8829 4.67822 33.3793C5.19821 33.762 5.86167 34.0699 6.55588 34.2886V34.0481C6.55588 29.7399 10.0277 26.2681 14.3359 26.2681C18.644 26.2681 22.1159 29.7399 22.1159 34.0481C22.1159 34.2859 22.089 34.4943 22.0629 34.6681H36.141C36.1237 34.4471 36.1238 34.2383 36.1239 34.0797C36.1239 34.0689 36.1239 34.0584 36.1239 34.0481C36.1239 29.7399 39.5957 26.2681 43.9039 26.2681C48.212 26.2681 51.6839 29.7399 51.6839 34.0481C51.6839 34.0612 51.6839 34.0743 51.6839 34.0875C51.684 34.2823 51.684 34.4754 51.6699 34.6681H51.8559C53.2597 34.6681 54.3799 33.5479 54.3799 32.1441V30.2401C54.3799 30.0909 54.3203 29.7206 54.1663 29.2056C54.0167 28.7051 53.7898 28.1079 53.4837 27.5156C52.8595 26.308 51.9648 25.2317 50.8234 24.8971C46.3833 23.6763 44.2882 23.4566 41.4015 23.2346L41.2171 23.2204L41.1147 23.118C41.1033 23.1138 41.0861 23.1078 41.0578 23.0984L41.0515 23.0963C41.0135 23.0837 40.9495 23.0624 40.8865 23.0337C40.8321 23.009 40.7621 22.9719 40.6927 22.9149L32.7966 18.0215C32.4229 17.8377 32.0445 17.7388 31.6149 17.6312C24.6007 17.0771 16.2571 17.0777 9.46992 17.6327C8.85926 17.7367 8.30983 17.9332 7.85744 18.3856C6.6362 19.6069 5.92917 20.5411 5.63079 21.5357ZM36.7612 24.5608L36.6939 24.5801H36.6239C36.5663 24.5801 36.5659 24.5801 36.4268 24.5782C36.0165 24.5729 34.3986 24.5517 26.5412 24.4681H26.4319H25.9319V23.9681V19.2641V18.7318L26.4631 18.765C28.2508 18.8768 29.8157 18.9885 31.3777 19.1001C31.4374 19.1001 31.5488 19.1013 31.6661 19.1209C31.772 19.1385 31.9504 19.181 32.1061 19.3084L38.4535 23.206L39.4219 23.8006L38.3292 24.1128L36.7612 24.5608ZM18.4703 24.356L17.9799 24.3465V23.8561V19.2641V18.7926L18.4505 18.7649C19.7304 18.6896 21.0264 18.7143 22.3328 18.7391C22.9874 18.7516 23.6447 18.7641 24.3039 18.7641H24.8039V19.2641V23.9681V24.4778L24.2943 24.468L18.4703 24.356ZM16.6279 23.7441V24.2441H16.1279H13.3279L13.3218 24.2441C13.2658 24.2441 13.1471 24.2442 13.0217 24.2233C12.903 24.2035 12.6932 24.1525 12.5263 23.9856C12.5316 23.9909 12.5287 23.9888 12.5122 23.9767C12.4916 23.9617 12.4498 23.9312 12.3765 23.8804C12.2973 23.8255 12.2002 23.7597 12.0868 23.6827C12.0408 23.6515 11.992 23.6184 11.9407 23.5835C11.5895 23.3447 11.1336 23.0313 10.6759 22.6881L10.2783 22.3898L10.5741 21.9904L12.8141 18.9665L12.9439 18.7912L13.1607 18.7671C14.1962 18.6521 15.1158 18.6521 16.1164 18.6521H16.1279H16.6279V19.1521V23.7441Z" fill="white" stroke="white"/>
<path d="M39.3638 34.1601C39.3638 36.6675 41.3965 38.7001 43.9038 38.7001C46.4112 38.7001 48.4438 36.6675 48.4438 34.1601C48.4438 31.6527 46.4112 29.6201 43.9038 29.6201C41.3965 29.6201 39.3638 31.6527 39.3638 34.1601Z" fill="white" stroke="white"/>
<path d="M9.79598 34.1601C9.79598 36.6675 11.8286 38.7001 14.336 38.7001C16.8433 38.7001 18.876 36.6675 18.876 34.1601C18.876 31.6527 16.8433 29.6201 14.336 29.6201C11.8286 29.6201 9.79598 31.6527 9.79598 34.1601Z" fill="white" stroke="white"/>
</svg>
