<svg width="56" height="56" viewBox="0 0 56 56" fill="none" xmlns="http://www.w3.org/2000/svg">
<path d="M1.95613 25.3121V25.5192L1.90942 25.5659C1.90824 25.5744 1.90701 25.5835 1.90573 25.5932C1.89091 25.7063 1.87463 25.87 1.85827 26.0732C1.8257 26.4777 1.79457 27.0164 1.77378 27.5708C1.75297 28.1258 1.74279 28.6896 1.7513 29.1458C1.75556 29.3744 1.76442 29.5695 1.77801 29.72C1.79055 29.8588 1.80441 29.9231 1.80781 29.9388C1.80858 29.9424 1.80881 29.9435 1.80837 29.9424L1.85105 30.0491L1.84286 30.1637C1.76708 31.2247 2.37126 32.1681 3.31586 32.5789C3.30812 32.4263 3.30813 32.2856 3.30813 32.1523V32.1441C3.30813 30.0213 4.15141 27.9855 5.65245 26.4844C7.15349 24.9834 9.18934 24.1401 11.3121 24.1401C13.4349 24.1401 15.4708 24.9834 16.9718 26.4844C18.4729 27.9855 19.3161 30.0213 19.3161 32.1441L19.3161 32.1835C19.3162 32.3784 19.3163 32.5714 19.3022 32.7641H34.6852C34.6679 32.5431 34.668 32.3343 34.6681 32.1757C34.6681 32.165 34.6681 32.1544 34.6681 32.1441C34.6681 30.0213 35.5114 27.9855 37.0124 26.4844C38.5135 24.9834 40.5493 24.1401 42.6721 24.1401C44.7949 24.1401 46.8308 24.9834 48.3318 26.4844C49.8329 27.9855 50.6761 30.0213 50.6761 32.1441C50.6761 32.1572 50.6761 32.1704 50.6761 32.1835C50.6762 32.3784 50.6763 32.5714 50.6622 32.7641H52.1921C53.4604 32.7641 54.4664 31.6789 54.3823 30.4006C54.2757 29.5638 53.9573 28.4945 53.6295 27.6199C53.2866 26.756 52.3479 26.0419 50.9318 25.4812C49.5335 24.9276 47.7778 24.5668 45.9829 24.3381C42.3966 23.8811 38.7609 23.9644 37.7719 24.0193L37.6595 24.0256L37.5553 23.9831C34.1483 22.5934 32.1602 21.7964 30.949 21.3108C30.6477 21.19 30.3944 21.0885 30.1794 21.0019C29.0981 20.5666 28.9594 20.5001 28.5361 20.2582L28.5284 20.2539L28.521 20.2492C27.4583 19.5914 25.9703 19.2604 23.8874 19.2741C21.8075 19.2878 19.1846 19.6444 15.8923 20.314C12.1028 21.0942 7.52581 22.3219 3.49395 23.4419L3.48136 23.4454L3.4686 23.4482C2.6736 23.6249 1.95613 24.4422 1.95613 25.3121ZM22.0144 24.0176L21.9901 24.0152L21.9661 24.0104C21.4295 23.9031 20.8453 23.7751 20.3921 23.3387L18.5124 21.9013L17.6115 21.2123L18.7278 21.012C20.9278 20.6171 22.8096 20.4157 24.3368 20.4301C25.8495 20.4444 27.0809 20.6701 27.9262 21.1903L27.9408 21.1993L27.9548 21.2092L27.9616 21.2141C28.1577 21.3542 28.2591 21.4266 28.3989 21.5037C28.5434 21.5833 28.7377 21.6722 29.1128 21.8251C29.4626 21.9676 29.9482 22.1572 30.6653 22.4372C31.495 22.7612 32.6346 23.2062 34.2323 23.8393L35.5553 24.3635L34.1952 24.782L32.7392 25.23L32.6673 25.2521H32.5921H31.9201H31.8884L31.857 25.2481L25.697 24.4641L25.4132 24.428L25.3006 24.1651L24.2926 21.8131L24.2924 21.8131L24.2879 21.8018C24.1841 21.5424 23.832 21.3803 23.4818 21.5203C23.2225 21.6241 23.0603 21.9762 23.2004 22.3264L23.6484 23.4464L23.9545 24.2116L23.1344 24.1296L22.0144 24.0176Z" fill="white" stroke="white"/>
<path d="M37.7962 32.0321C37.7962 34.6679 39.9244 36.7961 42.5602 36.7961C45.1961 36.7961 47.3242 34.6679 47.3242 32.0321C47.3242 29.3962 45.1961 27.2681 42.5602 27.2681C40.0295 27.2681 37.7962 29.4031 37.7962 32.0321ZM11.2002 36.7961C13.8361 36.7961 15.9642 34.6679 15.9642 32.0321C15.9642 29.3962 13.8361 27.2681 11.2002 27.2681C8.56436 27.2681 6.43622 29.3962 6.43622 32.0321C6.43622 34.6679 8.56436 36.7961 11.2002 36.7961Z" fill="white" stroke="white"/>
</svg>
