<svg width="56" height="56" viewBox="0 0 56 56" fill="none" xmlns="http://www.w3.org/2000/svg">
<path d="M13.552 28.8361C16.4184 28.8361 18.652 31.0828 18.652 33.8241C18.652 36.5597 16.4224 38.8168 13.5431 38.9241C10.8122 38.919 8.56396 36.5822 8.56396 33.8241C8.56396 31.0763 10.8041 28.8361 13.552 28.8361ZM50.348 33.7121C50.348 36.5786 48.1013 38.8121 45.36 38.8121C42.6244 38.8121 40.3673 36.5826 40.26 33.7033C40.265 30.9724 42.6019 28.7241 45.36 28.7241C48.1078 28.7241 50.348 30.9643 50.348 33.7121Z" stroke="white"/>
<path d="M50.0388 24.3367L50.0582 24.3422L50.0781 24.3462C50.4615 24.4229 50.6985 24.6383 51.0268 24.9657C51.4071 25.4867 51.8123 25.9123 52.1934 26.302C52.2377 26.3473 52.2815 26.3919 52.3249 26.4362C52.6685 26.7865 52.9834 27.1075 53.2698 27.4699C53.8904 28.2552 54.3868 29.2485 54.493 31.0533L54.4934 31.0612L54.4942 31.0692C54.5582 31.7733 54.2543 32.4594 53.7559 32.9726C53.2764 28.8915 49.7905 25.7079 45.5841 25.7079C41.0007 25.7079 37.3336 29.3105 37.2457 33.7719H21.8905C21.7999 29.3061 18.0203 25.7079 13.5521 25.7079C9.07477 25.7079 5.4136 29.3149 5.32573 33.7719H3.24812C2.726 33.7719 2.23 33.5072 1.99686 33.1187L1.97956 33.0898L1.95855 33.0636C1.61895 32.6391 1.53526 32.1455 1.70583 31.6319C2.39326 29.6263 2.56678 28.3277 2.69506 27.1731C2.70388 27.0937 2.71248 27.0152 2.72101 26.9373C2.83463 25.8994 2.93504 24.9822 3.38461 23.6835L3.3891 23.6705L3.39288 23.6573C4.03545 21.4083 5.42957 19.3715 7.24784 17.9811L7.30269 17.9391L7.32523 17.9091C7.32861 17.9071 7.33281 17.9046 7.33792 17.9019C7.37363 17.8824 7.4335 17.8562 7.52464 17.8262C7.70696 17.7663 7.96735 17.7063 8.30618 17.6491C8.98106 17.5351 9.9074 17.4419 11.0126 17.3688C13.2195 17.2229 16.0912 17.1599 18.9841 17.1599C21.8759 17.1599 24.7801 17.2228 27.0496 17.3274C28.185 17.3797 29.1568 17.4423 29.8867 17.512C30.2522 17.547 30.5512 17.5831 30.7771 17.6197C30.8901 17.638 30.9798 17.6557 31.0477 17.672C31.0815 17.6802 31.1072 17.6873 31.126 17.6933C31.1415 17.6982 31.149 17.7013 31.1506 17.7019L31.1505 17.7021L31.1632 17.7075C31.3244 17.7766 31.7831 18.0303 32.446 18.4153C33.0939 18.7915 33.9035 19.273 34.7429 19.7767C35.5819 20.2801 36.4492 20.8047 37.2121 21.2666C37.343 21.3458 37.4708 21.4233 37.5949 21.4984C38.1937 21.8611 38.706 22.1714 39.0549 22.3807L39.0713 22.3905L39.0885 22.3991L39.1018 22.4058C39.3259 22.5179 39.6339 22.672 40.0793 22.6758C43.6255 22.8984 46.9449 23.4527 50.0388 24.3367ZM10.6665 21.774L10.6665 21.774L10.6686 21.7675L11.4526 19.3035L11.6762 18.6006L10.9405 18.6532C10.1492 18.7097 9.58318 18.7663 9.18685 18.8088C9.08393 18.8198 8.99562 18.8294 8.91982 18.8377C8.68481 18.8634 8.56996 18.8759 8.51212 18.8759H8.35451L8.22539 18.9663C7.024 19.8073 6.07812 20.9979 5.3769 22.4003L4.9627 23.2287L5.88254 23.1205L9.69054 22.6725L9.77745 22.6623L9.85572 22.6231C9.86055 22.6207 9.86546 22.6183 9.87043 22.6158C10.103 22.4997 10.4887 22.3072 10.6665 21.774ZM17.6161 24.0213L17.6436 24.0625L17.6786 24.0975C17.8201 24.239 17.9815 24.365 18.179 24.4528C18.3788 24.5416 18.5898 24.5799 18.8161 24.5799H21.3401H21.8401H21.9521V24.0799H22.3401V19.0399V18.5399H21.8401H16.1281H15.6281V19.0399V20.3839C15.6281 21.0866 15.884 21.6062 16.2478 22.1367C16.391 22.3455 16.5589 22.5671 16.7374 22.8028C16.7787 22.8574 16.8206 22.9127 16.8629 22.9688C17.0917 23.272 17.344 23.6131 17.6161 24.0213ZM35.0557 24.4151L35.077 24.4045L35.0971 24.3919L36.8891 23.2719L37.558 22.8539L36.8945 22.4273C36.1036 21.9189 34.726 21.0756 33.4779 20.3323C32.8534 19.9604 32.2588 19.6121 31.7841 19.342C31.3261 19.0815 30.9412 18.8714 30.7618 18.7997L30.6724 18.7639H30.597C30.5902 18.763 30.5781 18.7615 30.5589 18.7588L30.5471 18.7572C30.5019 18.7509 30.4369 18.7419 30.3488 18.731C30.1565 18.7071 29.8583 18.6749 29.3965 18.6394C28.474 18.5684 26.8961 18.4841 24.2025 18.428L23.6921 18.4174V18.9279V24.0799V24.5799H24.1921H34.1601C34.1682 24.5799 34.1765 24.5799 34.1849 24.5799C34.3975 24.5802 34.7247 24.5806 35.0557 24.4151Z" stroke="white"/>
</svg>
